<svg xmlns="http://www.w3.org/2000/svg" xmlns:xlink="http://www.w3.org/1999/xlink" width="1152" zoomAndPan="magnify" viewBox="0 0 864 863.999991" height="1152" preserveAspectRatio="xMidYMid meet" version="1.0"><defs><clipPath id="f695bf5237"><path d="M 155 147 L 725 147 L 725 718.59375 L 155 718.59375 Z M 155 147 " clip-rule="nonzero"/></clipPath><clipPath id="a7f54d8ddd"><path d="M 679 255.15625 L 743 255.15625 L 743 289 L 679 289 Z M 679 255.15625 " clip-rule="nonzero"/></clipPath><clipPath id="c1f1203102"><path d="M 679 255.15625 L 741 255.15625 L 741 268 L 679 268 Z M 679 255.15625 " clip-rule="nonzero"/></clipPath><clipPath id="6d3f965c29"><path d="M 0 248 L 26 248 L 26 594 L 0 594 Z M 0 248 " clip-rule="nonzero"/></clipPath><clipPath id="5e7d59703b"><path d="M 94.746094 616.761719 L -42.453125 562.230469 L -94.671875 479.980469 L -17.386719 248.109375 L 18.761719 311.933594 L 94.746094 339.007812 L 170.734375 311.933594 L 269.117188 356.984375 L 346.402344 588.859375 L 231.945312 562.230469 Z M 94.746094 616.761719 " clip-rule="evenodd"/></clipPath><clipPath id="217785ed31"><path d="M 92 307 L 240 307 L 240 617 L 92 617 Z M 92 307 " clip-rule="nonzero"/></clipPath><clipPath id="f150a3dbb5"><path d="M 94.746094 616.761719 L -42.453125 562.230469 L -94.671875 479.980469 L -17.386719 248.109375 L 18.761719 311.933594 L 94.746094 339.007812 L 170.734375 311.933594 L 269.117188 356.984375 L 346.402344 588.859375 L 231.945312 562.230469 Z M 94.746094 616.761719 " clip-rule="evenodd"/></clipPath><clipPath id="6868a06c22"><path d="M 0 246.265625 L 348.277344 246.265625 L 348.277344 618.78125 L 0 618.78125 Z M 0 246.265625 " clip-rule="nonzero"/></clipPath><clipPath id="68007e4913"><path d="M 442.761719 319.261719 L 527.039062 319.261719 L 527.039062 407.449219 L 442.761719 407.449219 Z M 442.761719 319.261719 " clip-rule="nonzero"/></clipPath><clipPath id="7a82cded49"><path d="M 485 442 L 507.117188 442 L 507.117188 454 L 485 454 Z M 485 442 " clip-rule="nonzero"/></clipPath><clipPath id="b3fa7cef57"><path d="M 373.117188 442 L 394 442 L 394 462 L 373.117188 462 Z M 373.117188 442 " clip-rule="nonzero"/></clipPath></defs><rect x="-86.4" width="1036.8" fill="#ffffff" y="-86.399999" height="1036.79999" fill-opacity="1"/><rect x="-86.4" width="1036.8" fill="#dde4fc" y="-86.399999" height="1036.79999" fill-opacity="1"/><g clip-path="url(#f695bf5237)"><path fill="#c38c5e" d="M 328.328125 240 C 325.90625 256.078125 327.039062 272.453125 326.328125 288.695312 C 325.621094 304.9375 322.820312 321.722656 313.59375 335.105469 C 307.335938 344.179688 298.417969 351.199219 288.660156 356.324219 C 278.902344 361.445312 268.300781 364.761719 257.601562 367.414062 C 236.210938 372.71875 213.808594 375.613281 194.375 386.007812 C 177.578125 394.996094 163.503906 409.933594 158.011719 428.171875 C 155.261719 437.289062 154.703125 447.101562 156.738281 456.40625 C 158.773438 465.710938 163.4375 474.476562 170.261719 481.117188 C 177.074219 487.742188 185.8125 492.113281 194.855469 495.035156 C 203.902344 497.953125 213.316406 499.507812 222.675781 501.164062 C 232.035156 502.824219 241.429688 504.613281 250.320312 507.972656 C 259.210938 511.328125 267.648438 516.363281 273.78125 523.625 C 278.984375 529.785156 282.363281 537.378906 284.007812 545.273438 C 285.65625 553.164062 285.609375 561.355469 284.441406 569.332031 C 282.105469 585.289062 275.398438 600.222656 268.925781 614.992188 C 262.453125 629.765625 256.0625 644.890625 254.421875 660.933594 C 253.601562 668.953125 254.007812 677.148438 256.164062 684.917969 C 258.320312 692.6875 262.28125 700.023438 268 705.707031 C 275.328125 712.988281 285.355469 717.3125 295.628906 718.417969 C 305.898438 719.527344 316.386719 717.527344 325.878906 713.449219 C 344.867188 705.289062 359.40625 689.367188 371.476562 672.59375 C 383.550781 655.824219 393.84375 637.683594 407.628906 622.289062 C 414.519531 614.589844 422.285156 607.597656 431.125 602.242188 C 439.960938 596.886719 449.902344 593.199219 460.195312 592.296875 C 471.230469 591.332031 482.421875 593.597656 492.601562 597.964844 C 502.785156 602.332031 511.996094 608.75 520.269531 616.117188 C 536.808594 630.859375 549.574219 649.261719 563.96875 666.105469 C 578.359375 682.949219 595.226562 698.792969 616.257812 705.773438 C 626.769531 709.261719 638.179688 710.382812 649.023438 708.117188 C 659.867188 705.855469 670.089844 700.074219 676.960938 691.382812 C 685.429688 680.667969 688.277344 666.277344 687.007812 652.679688 C 685.738281 639.078125 680.691406 626.105469 674.71875 613.824219 C 668.746094 601.539062 661.804688 589.722656 656.367188 577.191406 C 650.933594 564.660156 646.996094 551.191406 647.488281 537.539062 C 648.101562 520.609375 655.492188 504.558594 665.035156 490.558594 C 674.578125 476.558594 686.292969 464.203125 696.953125 451.03125 C 707.609375 437.863281 717.378906 423.53125 722.101562 407.257812 C 724.460938 399.125 725.511719 390.5625 724.695312 382.132812 C 723.878906 373.699219 721.152344 365.402344 716.402344 358.390625 C 708.113281 346.164062 694.191406 338.613281 679.796875 335.3125 C 665.398438 332.011719 650.417969 332.542969 635.691406 333.644531 C 620.960938 334.746094 606.1875 336.40625 591.460938 335.300781 C 576.734375 334.195312 561.808594 330.09375 550.273438 320.875 C 541.835938 314.132812 535.578125 304.933594 531.230469 295.046875 C 526.878906 285.164062 524.347656 274.570312 522.472656 263.933594 C 518.726562 242.660156 517.421875 220.570312 508.652344 200.832031 C 499.828125 180.976562 483.480469 164.578125 463.652344 155.691406 C 443.824219 146.808594 420.703125 145.519531 400.015625 152.148438 C 381.394531 158.972656 364.667969 170.886719 352.132812 186.25 C 339.59375 201.613281 331.277344 220.390625 328.328125 240 Z M 328.328125 240 " fill-opacity="1" fill-rule="nonzero"/></g><path fill="#feefcd" d="M 691.890625 312.878906 C 691.171875 313.132812 689.15625 313.859375 688.226562 314.246094 C 685.566406 315.351562 682.914062 316.679688 680.261719 318.1875 C 673.105469 322.257812 666.398438 327.355469 660.441406 333.171875 C 643.660156 349.574219 635.003906 378.199219 638.828125 402.085938 C 641.742188 420.308594 651.667969 438.601562 665.449219 450.0625 C 680.03125 462.1875 700.773438 470.289062 720.703125 471.089844 C 729.480469 471.445312 737.84375 470.371094 745.304688 467.808594 C 769.175781 459.613281 791.382812 437.777344 797.855469 414.371094 C 803.078125 395.46875 797.289062 371.921875 786.347656 352.277344 C 774.996094 331.90625 749.671875 317.175781 724.429688 312.164062 C 719.976562 311.28125 715.519531 310.707031 711.148438 310.53125 C 708.417969 310.421875 705.734375 310.464844 703.113281 310.683594 C 700.445312 310.902344 697.878906 311.292969 695.445312 311.871094 C 694.546875 312.082031 692.597656 312.664062 691.890625 312.878906 Z M 691.890625 312.878906 " fill-opacity="1" fill-rule="evenodd"/><path fill="#786650" d="M 710.085938 280.570312 L 707.109375 280.703125 C 703.316406 280.917969 700.210938 281.285156 697.789062 281.800781 C 696.582031 282.0625 695.542969 282.359375 694.675781 282.695312 L 693.503906 283.226562 L 692.363281 283.972656 L 692.15625 284.164062 C 691.628906 284.746094 691.355469 285.679688 691.339844 286.972656 C 691.390625 288.285156 691.757812 290.871094 692.4375 294.734375 L 732.035156 294.328125 C 731.914062 292.90625 731.738281 291.589844 731.507812 290.390625 C 731.457031 289.648438 730.992188 288.09375 730.109375 285.726562 C 729.402344 284.039062 728.332031 282.691406 726.890625 281.6875 C 726.464844 281.3125 725.023438 281.042969 722.570312 280.875 C 720.335938 280.734375 716.171875 280.632812 710.085938 280.570312 Z M 710.085938 280.570312 " fill-opacity="1" fill-rule="nonzero"/><g clip-path="url(#a7f54d8ddd)"><path fill="#786650" d="M 712.359375 255.183594 L 711.476562 255.191406 C 703.828125 255.335938 696.671875 256.457031 690.007812 258.554688 C 685.222656 260.148438 682.59375 261.191406 682.121094 261.683594 C 681.65625 261.859375 680.894531 262.507812 679.835938 263.625 C 679.488281 264.085938 679.246094 264.566406 679.113281 265.0625 C 678.800781 271.828125 679.683594 276.914062 681.753906 280.3125 C 682.195312 280.769531 682.683594 281.105469 683.210938 281.328125 C 691.101562 283.949219 695.898438 285.71875 697.605469 286.632812 C 698.867188 287.238281 699.589844 287.867188 699.769531 288.523438 L 722.0625 286.460938 C 727.480469 284.976562 731.769531 283.621094 734.921875 282.394531 C 738.367188 280.914062 740.09375 280.0625 740.105469 279.84375 C 740.832031 279.324219 741.273438 278.835938 741.433594 278.378906 C 741.710938 277.570312 741.910156 276.667969 742.023438 275.675781 C 742.164062 273.03125 742.148438 271.335938 741.980469 270.585938 C 741.285156 265.476562 740.445312 262.144531 739.460938 260.585938 C 738 259.324219 734.359375 258.121094 728.542969 256.984375 C 725.441406 256.355469 722.453125 255.882812 719.578125 255.566406 C 718.113281 255.367188 715.707031 255.242188 712.359375 255.183594 Z M 712.359375 255.183594 " fill-opacity="1" fill-rule="nonzero"/></g><g clip-path="url(#c1f1203102)"><path fill="#a58e73" d="M 712.359375 255.183594 L 711.476562 255.191406 C 703.828125 255.335938 696.671875 256.457031 690.007812 258.554688 C 685.222656 260.148438 682.59375 261.191406 682.121094 261.683594 C 681.65625 261.859375 680.894531 262.507812 679.835938 263.625 C 679.488281 264.085938 679.25 264.566406 679.113281 265.0625 C 679.109375 265.140625 679.105469 265.21875 679.105469 265.296875 C 680.023438 265.761719 682.046875 266.304688 685.175781 266.925781 C 692.140625 267.4375 698.511719 267.691406 704.289062 267.691406 C 708.445312 267.691406 712.296875 267.558594 715.84375 267.296875 C 722.105469 266.757812 725.765625 266.367188 726.828125 266.121094 C 731.636719 265.382812 735.792969 264.496094 739.304688 263.453125 C 739.707031 263.320312 740.101562 263.183594 740.492188 263.039062 C 740.167969 261.980469 739.828125 261.160156 739.464844 260.585938 C 738 259.324219 734.359375 258.121094 728.542969 256.984375 C 725.441406 256.355469 722.453125 255.882812 719.578125 255.566406 C 718.113281 255.367188 715.707031 255.242188 712.359375 255.183594 Z M 712.359375 255.183594 " fill-opacity="1" fill-rule="nonzero"/></g><path fill="#fd5c24" d="M 758.546875 348.25 L 758.425781 348.257812 C 757.976562 348.335938 757.527344 348.511719 757.070312 348.792969 L 727.347656 366.175781 C 730.070312 364.40625 729.875 364.4375 726.761719 366.269531 L 718.90625 371.066406 C 713.324219 374.875 708.910156 378.492188 705.664062 381.910156 C 703.214844 384.804688 700.8125 388.152344 698.457031 391.953125 L 674.230469 431.070312 C 672.082031 434.382812 671.847656 435.980469 673.519531 435.859375 C 675.296875 435.34375 683.691406 429.976562 698.695312 419.757812 C 712.945312 409.910156 722.5 402.976562 727.355469 398.964844 L 746.175781 370.03125 L 756.710938 354.992188 C 758.167969 352.542969 758.957031 351.007812 759.082031 350.394531 C 759.425781 348.984375 759.246094 348.269531 758.546875 348.25 Z M 758.546875 348.25 " fill-opacity="1" fill-rule="nonzero"/><path fill="#a58e73" d="M 715.347656 369.679688 L 714.097656 369.722656 C 711.257812 369.90625 708.121094 370.855469 704.6875 372.578125 L 703.25 373.347656 C 700.757812 375.574219 699.320312 376.921875 698.9375 377.402344 C 697.8125 378.554688 696.800781 380.007812 695.898438 381.761719 C 694.492188 386.101562 693.863281 389.023438 694.007812 390.527344 C 693.953125 391.9375 694.105469 393.359375 694.46875 394.796875 C 694.902344 396.261719 695.417969 397.417969 696.015625 398.265625 C 696.28125 399.214844 696.546875 399.980469 696.804688 400.5625 C 697.921875 403.109375 699.523438 405.425781 701.613281 407.519531 C 705.3125 410.929688 709.699219 412.5625 714.78125 412.410156 C 717.796875 412.4375 720.664062 411.945312 723.375 410.925781 C 725.703125 410.015625 727.773438 408.699219 729.585938 406.96875 C 731.410156 405.242188 732.898438 403.074219 734.042969 400.472656 C 734.859375 398.488281 735.289062 396.050781 735.328125 393.167969 C 735.492188 390.464844 734.757812 386.382812 733.117188 380.921875 C 732.246094 379.210938 731.042969 377.457031 729.507812 375.652344 C 725.585938 371.371094 720.867188 369.378906 715.347656 369.679688 Z M 715.347656 369.679688 " fill-opacity="1" fill-rule="nonzero"/><path fill="#42442f" d="M 713.164062 323.648438 C 711.257812 323.648438 709.566406 324.136719 708.089844 325.113281 C 708.070312 325.125 708.054688 325.136719 708.039062 325.148438 C 705.671875 326.859375 704.492188 328.667969 704.496094 330.574219 C 704.441406 332.714844 705.300781 334.347656 707.070312 335.464844 L 707.066406 335.464844 C 707.507812 335.796875 708.191406 336.160156 709.117188 336.554688 C 709.148438 336.570312 709.183594 336.582031 709.21875 336.59375 C 712.320312 337.664062 714.605469 338.582031 716.070312 339.351562 L 716.09375 339.363281 C 717.027344 339.832031 717.847656 340.550781 718.558594 341.511719 C 720.007812 343.507812 719.816406 345.175781 717.992188 346.519531 C 717.949219 346.554688 717.902344 346.585938 717.859375 346.617188 L 717.855469 346.617188 C 716.53125 347.363281 715.273438 347.734375 714.078125 347.734375 C 713.074219 347.734375 712.117188 347.472656 711.203125 346.949219 C 711.183594 346.9375 711.164062 346.925781 711.140625 346.914062 C 709.378906 346.007812 708.589844 344.140625 708.769531 341.300781 C 708.824219 340.480469 708.203125 339.769531 707.386719 339.714844 C 707.355469 339.714844 707.320312 339.710938 707.289062 339.710938 C 706.511719 339.710938 705.859375 340.320312 705.808594 341.109375 C 705.539062 345.253906 706.871094 348.074219 709.792969 349.574219 L 709.789062 349.574219 C 711.171875 350.355469 712.601562 350.746094 714.074219 350.746094 C 715.785156 350.746094 717.558594 350.222656 719.398438 349.171875 C 719.4375 349.148438 719.472656 349.125 719.507812 349.101562 C 719.589844 349.042969 719.667969 348.988281 719.746094 348.929688 C 723.171875 346.410156 723.574219 343.347656 720.949219 339.742188 L 720.941406 339.730469 C 719.957031 338.394531 718.792969 337.386719 717.449219 336.707031 C 715.859375 335.871094 713.460938 334.902344 710.246094 333.792969 L 710.242188 333.792969 C 709.515625 333.480469 709.046875 333.238281 708.832031 333.0625 C 708.78125 333.023438 708.734375 332.988281 708.679688 332.957031 C 707.835938 332.433594 707.433594 331.652344 707.464844 330.621094 L 707.464844 330.566406 C 707.464844 329.691406 708.214844 328.707031 709.722656 327.605469 C 710.703125 326.957031 711.855469 326.632812 713.183594 326.632812 C 713.523438 326.632812 713.875 326.65625 714.234375 326.695312 L 714.253906 326.699219 C 715.332031 326.8125 716.109375 327.238281 716.59375 327.972656 C 716.832031 328.347656 717.007812 328.746094 717.113281 329.175781 L 717.808594 332.726562 C 717.949219 333.4375 718.570312 333.933594 719.265625 333.933594 C 719.359375 333.933594 719.457031 333.921875 719.554688 333.902344 C 720.355469 333.746094 720.878906 332.960938 720.722656 332.148438 L 720.011719 328.519531 C 720.003906 328.496094 720 328.46875 719.992188 328.445312 C 719.804688 327.695312 719.5 326.992188 719.078125 326.339844 L 719.074219 326.332031 C 718.078125 324.8125 716.582031 323.945312 714.582031 323.730469 L 714.578125 323.730469 C 714.09375 323.675781 713.625 323.648438 713.164062 323.648438 Z M 713.164062 323.648438 " fill-opacity="1" fill-rule="nonzero"/><path fill="#42442f" d="M 768.308594 396.335938 C 768.292969 396.355469 768.277344 396.375 768.265625 396.390625 C 768.261719 396.390625 768.257812 396.390625 768.253906 396.390625 C 768.027344 396.390625 767.800781 396.441406 767.597656 396.542969 C 767.847656 396.40625 768.082031 396.339844 768.300781 396.335938 Z M 786.828125 378.875 C 786.144531 378.875 785.527344 379.351562 785.378906 380.050781 C 784.925781 382.175781 783.476562 387.152344 781.039062 394.976562 L 778 389 C 777.976562 388.949219 777.949219 388.902344 777.917969 388.855469 C 776.914062 387.320312 775.796875 386.472656 774.574219 386.304688 C 774.542969 386.300781 774.511719 386.300781 774.480469 386.296875 C 774.425781 386.292969 774.371094 386.292969 774.320312 386.292969 C 773.789062 386.292969 773.292969 386.472656 772.832031 386.832031 C 772.402344 387.167969 772.011719 387.671875 771.660156 388.34375 C 771.640625 388.375 771.625 388.410156 771.613281 388.441406 C 770.589844 390.757812 769.570312 393.191406 768.546875 395.738281 C 766.933594 392.421875 765.964844 390.53125 765.644531 390.054688 C 765.632812 390.035156 765.617188 390.015625 765.605469 390 L 765.601562 390 L 761.28125 383.351562 C 760.996094 382.914062 760.523438 382.675781 760.039062 382.675781 C 759.761719 382.675781 759.476562 382.753906 759.226562 382.921875 C 758.542969 383.371094 758.347656 384.296875 758.796875 384.988281 L 763.121094 391.640625 C 763.152344 391.6875 763.183594 391.734375 763.21875 391.777344 L 763.214844 391.777344 C 763.5 392.226562 764.425781 394.058594 765.988281 397.269531 C 766.007812 397.3125 766.03125 397.355469 766.054688 397.394531 C 766.457031 398.058594 766.761719 398.507812 766.96875 398.75 C 767.355469 399.199219 767.761719 399.425781 768.191406 399.425781 C 768.207031 399.425781 768.222656 399.425781 768.238281 399.425781 L 768.242188 399.425781 C 768.335938 399.4375 768.429688 399.445312 768.519531 399.445312 C 768.980469 399.445312 769.433594 399.277344 769.882812 398.945312 C 770.210938 398.703125 770.527344 398.359375 770.835938 397.914062 C 770.902344 397.820312 770.957031 397.71875 770.996094 397.613281 C 772.09375 394.859375 773.191406 392.234375 774.285156 389.742188 L 774.28125 389.742188 C 774.355469 389.601562 774.421875 389.484375 774.484375 389.394531 L 774.488281 389.394531 C 774.753906 389.574219 775.0625 389.925781 775.414062 390.460938 L 775.410156 390.460938 L 779.160156 397.84375 C 779.25 398.039062 779.347656 398.210938 779.449219 398.367188 C 779.886719 399.015625 780.433594 399.339844 781.089844 399.339844 C 781.179688 399.339844 781.273438 399.332031 781.367188 399.320312 C 781.546875 399.296875 781.722656 399.242188 781.882812 399.152344 C 782.050781 399.0625 782.207031 398.953125 782.359375 398.824219 C 782.875 398.386719 783.273438 397.742188 783.550781 396.898438 L 783.554688 396.878906 C 786.214844 388.386719 787.789062 382.984375 788.28125 380.679688 C 788.453125 379.875 787.941406 379.078125 787.140625 378.90625 C 787.035156 378.882812 786.933594 378.875 786.828125 378.875 Z M 786.828125 378.875 " fill-opacity="1" fill-rule="nonzero"/><path fill="#42442f" d="M 731.121094 432.480469 C 730.3125 432.480469 729.648438 433.136719 729.636719 433.953125 C 729.625 435.070312 729.574219 435.886719 729.480469 436.398438 L 729.480469 436.402344 C 728.648438 441.066406 727.960938 445.214844 727.417969 448.847656 C 726.132812 446.691406 724.207031 442.875 721.632812 437.402344 C 721.503906 437.125 721.355469 436.878906 721.191406 436.671875 C 720.699219 436.042969 720.105469 435.730469 719.417969 435.730469 C 719.242188 435.730469 719.058594 435.75 718.871094 435.789062 C 718.753906 435.816406 718.640625 435.855469 718.53125 435.910156 C 718.277344 436.035156 718.039062 436.21875 717.824219 436.460938 C 717.398438 436.9375 716.980469 437.761719 716.570312 438.929688 L 716.5625 438.941406 L 710.246094 457.574219 C 709.984375 458.355469 710.398438 459.203125 711.175781 459.46875 C 711.332031 459.523438 711.496094 459.550781 711.652344 459.550781 C 712.269531 459.550781 712.847656 459.160156 713.058594 458.539062 L 719.375 439.90625 C 719.394531 439.84375 719.417969 439.785156 719.4375 439.726562 L 719.441406 439.726562 C 722.316406 445.789062 724.378906 449.742188 725.628906 451.585938 C 725.78125 451.828125 725.925781 452.046875 726.066406 452.238281 C 726.375 452.664062 726.671875 452.992188 726.957031 453.21875 C 727.398438 453.570312 727.832031 453.746094 728.257812 453.746094 C 728.617188 453.746094 728.96875 453.621094 729.316406 453.367188 C 729.640625 453.128906 729.859375 452.765625 729.914062 452.363281 C 730.5 448.089844 731.328125 442.945312 732.402344 436.929688 C 732.523438 436.253906 732.59375 435.273438 732.605469 433.992188 C 732.617188 433.167969 731.960938 432.488281 731.140625 432.480469 C 731.132812 432.480469 731.128906 432.480469 731.121094 432.480469 Z M 731.121094 432.480469 " fill-opacity="1" fill-rule="nonzero"/><path fill="#42442f" d="M 663.527344 376.976562 C 663.453125 376.976562 663.378906 376.984375 663.300781 376.996094 C 660.121094 377.480469 657.011719 377.726562 653.976562 377.726562 C 653.242188 377.726562 652.515625 377.710938 651.789062 377.683594 C 651.769531 377.679688 651.75 377.679688 651.734375 377.679688 C 651.691406 377.679688 651.648438 377.683594 651.605469 377.6875 C 651.378906 377.707031 651.164062 377.746094 650.953125 377.8125 C 650.566406 377.933594 650.21875 378.125 649.914062 378.390625 C 649.640625 378.625 649.410156 378.914062 649.214844 379.25 C 649.191406 379.289062 649.171875 379.332031 649.152344 379.375 C 648.578125 380.644531 648.34375 381.96875 648.445312 383.34375 L 648.441406 383.34375 C 648.421875 384.40625 648.660156 387.691406 649.160156 393.207031 L 649.15625 393.207031 L 649.292969 400.085938 L 649.289062 400.085938 C 649.160156 402.3125 650.527344 403.535156 653.386719 403.765625 C 653.457031 403.769531 653.527344 403.773438 653.597656 403.78125 C 654.289062 403.890625 655.148438 403.941406 656.175781 403.941406 C 658.386719 403.941406 661.378906 403.691406 665.152344 403.1875 C 665.964844 403.078125 666.535156 402.328125 666.429688 401.511719 C 666.328125 400.761719 665.691406 400.214844 664.960938 400.214844 C 664.894531 400.214844 664.828125 400.21875 664.761719 400.226562 C 661.082031 400.71875 658.230469 400.964844 656.203125 400.964844 C 655.304688 400.964844 654.570312 400.917969 653.996094 400.820312 C 653.941406 400.8125 653.886719 400.804688 653.832031 400.800781 C 653.761719 400.800781 653.691406 400.792969 653.621094 400.789062 C 652.6875 400.714844 652.230469 400.519531 652.257812 400.207031 C 652.261719 400.160156 652.261719 400.109375 652.261719 400.058594 L 652.121094 393.054688 C 652.121094 393.019531 652.121094 392.984375 652.117188 392.949219 C 651.605469 387.300781 651.371094 384.105469 651.410156 383.367188 C 651.414062 383.300781 651.414062 383.234375 651.410156 383.167969 C 651.339844 382.3125 651.476562 381.492188 651.816406 380.699219 L 651.8125 380.699219 C 651.820312 380.6875 651.828125 380.679688 651.832031 380.671875 L 651.835938 380.671875 C 652.546875 380.699219 653.257812 380.710938 653.976562 380.710938 C 657.160156 380.710938 660.417969 380.457031 663.75 379.945312 C 664.558594 379.820312 665.117188 379.058594 664.992188 378.246094 C 664.882812 377.507812 664.25 376.976562 663.527344 376.976562 Z M 663.527344 376.976562 " fill-opacity="1" fill-rule="nonzero"/><path fill="#42442f" d="M 662.902344 388.664062 C 662.875 388.664062 662.851562 388.664062 662.824219 388.667969 C 662.394531 388.703125 662.132812 388.726562 662.03125 388.738281 L 662.023438 388.738281 C 661.3125 388.816406 660.738281 388.871094 660.300781 388.90625 C 659.1875 388.992188 658.515625 389.039062 658.28125 389.042969 L 658.265625 389.042969 C 657.324219 389.078125 656.492188 389.101562 655.761719 389.109375 L 655.757812 389.109375 C 654.761719 389.113281 653.832031 389.117188 652.96875 389.128906 C 652.464844 389.128906 652.074219 389.125 651.800781 389.117188 C 651.792969 389.117188 651.785156 389.117188 651.777344 389.117188 C 651.277344 389.117188 650.863281 389.519531 650.851562 390.027344 C 650.839844 390.542969 651.242188 390.96875 651.757812 390.984375 C 652.042969 390.992188 652.449219 390.996094 652.972656 390.996094 L 652.984375 390.996094 C 653.847656 390.984375 654.777344 390.976562 655.769531 390.972656 L 655.777344 390.972656 C 656.523438 390.964844 657.371094 390.945312 658.320312 390.90625 C 658.589844 390.902344 659.300781 390.855469 660.445312 390.769531 L 660.449219 390.769531 C 660.902344 390.730469 661.492188 390.675781 662.21875 390.59375 C 662.3125 390.585938 662.5625 390.5625 662.980469 390.527344 C 663.492188 390.484375 663.871094 390.035156 663.828125 389.519531 C 663.785156 389.03125 663.378906 388.664062 662.902344 388.664062 Z M 662.902344 388.664062 " fill-opacity="1" fill-rule="nonzero"/><path fill="#42442f" d="M 663.1875 388.769531 C 663.015625 388.769531 662.84375 388.816406 662.691406 388.914062 C 662.171875 389.242188 661.621094 389.425781 661.035156 389.457031 L 661.019531 389.460938 C 660.765625 389.480469 659.933594 389.570312 658.523438 389.730469 C 658.507812 389.730469 658.5 389.730469 658.488281 389.734375 C 658.175781 389.761719 657.832031 389.792969 657.457031 389.820312 L 657.453125 389.820312 C 656.914062 389.859375 655.96875 389.90625 654.621094 389.960938 L 654.613281 389.960938 C 654.222656 389.980469 653.710938 390.015625 653.078125 390.066406 L 653.074219 390.066406 L 651.773438 390.121094 C 651.65625 390.125 651.46875 390.144531 651.207031 390.175781 C 650.699219 390.246094 650.34375 390.714844 650.410156 391.226562 C 650.472656 391.695312 650.871094 392.035156 651.328125 392.035156 C 651.371094 392.035156 651.410156 392.035156 651.453125 392.027344 C 651.65625 392 651.785156 391.988281 651.84375 391.984375 L 651.851562 391.984375 L 653.175781 391.929688 L 653.210938 391.925781 C 653.828125 391.878906 654.324219 391.84375 654.695312 391.824219 C 656.0625 391.769531 657.027344 391.722656 657.585938 391.679688 C 657.992188 391.652344 658.363281 391.621094 658.703125 391.585938 L 658.714844 391.585938 C 658.71875 391.585938 658.726562 391.582031 658.730469 391.582031 C 660.089844 391.429688 660.894531 391.34375 661.148438 391.320312 L 661.144531 391.320312 C 662.050781 391.269531 662.894531 390.992188 663.683594 390.488281 C 664.117188 390.214844 664.246094 389.636719 663.96875 389.203125 C 663.792969 388.921875 663.492188 388.769531 663.1875 388.769531 Z M 663.1875 388.769531 " fill-opacity="1" fill-rule="nonzero"/><path fill="#42442f" d="M 684.046875 335.65625 C 683 335.65625 682.152344 336.511719 682.152344 337.5625 C 682.152344 338.617188 683 339.46875 684.046875 339.46875 C 685.09375 339.46875 685.945312 338.617188 685.945312 337.5625 C 685.945312 336.511719 685.09375 335.65625 684.046875 335.65625 Z M 677.488281 339.464844 C 676.441406 339.464844 675.589844 340.320312 675.589844 341.371094 C 675.589844 342.425781 676.441406 343.277344 677.488281 343.277344 C 678.53125 343.277344 679.382812 342.425781 679.382812 341.371094 C 679.382812 340.320312 678.53125 339.464844 677.488281 339.464844 Z M 671.621094 344.273438 C 670.574219 344.273438 669.726562 345.128906 669.726562 346.179688 C 669.726562 347.234375 670.574219 348.085938 671.621094 348.085938 C 672.667969 348.085938 673.515625 347.234375 673.515625 346.179688 C 673.515625 345.128906 672.667969 344.273438 671.621094 344.273438 Z M 666.921875 350.230469 C 665.875 350.230469 665.027344 351.082031 665.027344 352.136719 C 665.027344 353.1875 665.875 354.039062 666.921875 354.039062 C 667.96875 354.039062 668.816406 353.1875 668.816406 352.136719 C 668.816406 351.082031 667.96875 350.230469 666.921875 350.230469 Z M 663.253906 356.886719 C 662.207031 356.886719 661.359375 357.738281 661.359375 358.792969 C 661.359375 359.84375 662.207031 360.699219 663.253906 360.699219 C 664.300781 360.699219 665.148438 359.84375 665.148438 358.792969 C 665.148438 357.738281 664.300781 356.886719 663.253906 356.886719 Z M 663.253906 356.886719 " fill-opacity="1" fill-rule="nonzero"/><path fill="#42442f" d="M 777.019531 416.179688 C 778.066406 416.179688 778.914062 417.03125 778.914062 418.085938 C 778.914062 419.136719 778.066406 419.992188 777.019531 419.992188 C 775.972656 419.992188 775.125 419.136719 775.125 418.085938 C 775.125 417.03125 775.972656 416.179688 777.019531 416.179688 Z M 773.679688 423.015625 C 774.726562 423.015625 775.574219 423.871094 775.574219 424.921875 C 775.574219 425.976562 774.726562 426.828125 773.679688 426.828125 C 772.632812 426.828125 771.785156 425.976562 771.785156 424.921875 C 771.785156 423.871094 772.632812 423.015625 773.679688 423.015625 Z M 769.238281 429.171875 C 770.285156 429.171875 771.132812 430.023438 771.132812 431.078125 C 771.132812 432.132812 770.285156 432.984375 769.238281 432.984375 C 768.191406 432.984375 767.34375 432.132812 767.34375 431.078125 C 767.34375 430.023438 768.191406 429.171875 769.238281 429.171875 Z M 763.949219 434.625 C 764.996094 434.625 765.84375 435.476562 765.84375 436.53125 C 765.84375 437.582031 764.996094 438.4375 763.949219 438.4375 C 762.902344 438.4375 762.054688 437.582031 762.054688 436.53125 C 762.054688 435.476562 762.902344 434.625 763.949219 434.625 Z M 758.226562 439.539062 C 759.273438 439.539062 760.121094 440.394531 760.121094 441.445312 C 760.121094 442.5 759.273438 443.351562 758.226562 443.351562 C 757.179688 443.351562 756.332031 442.5 756.332031 441.445312 C 756.332031 440.394531 757.179688 439.539062 758.226562 439.539062 Z M 751.859375 443.671875 C 752.90625 443.671875 753.753906 444.527344 753.753906 445.578125 C 753.753906 446.632812 752.90625 447.484375 751.859375 447.484375 C 750.8125 447.484375 749.964844 446.632812 749.964844 445.578125 C 749.964844 444.527344 750.8125 443.671875 751.859375 443.671875 Z M 751.859375 443.671875 " fill-opacity="1" fill-rule="nonzero"/><path fill="#42442f" d="M 684.484375 289.25 C 684.347656 289.289062 687.78125 288.238281 689.773438 287.761719 C 693.574219 286.859375 697.378906 286.300781 701.097656 285.992188 C 704.800781 285.6875 708.492188 285.632812 712.132812 285.777344 C 717.953125 286.011719 723.683594 286.765625 729.199219 287.859375 C 758.875 293.753906 791.824219 311.429688 807.835938 340.171875 C 820.414062 362.746094 829.25 393.289062 821.585938 421.007812 C 812.660156 453.292969 783.789062 480.765625 753.261719 491.25 C 742.503906 494.945312 731.050781 496.296875 719.71875 495.84375 C 694.449219 494.824219 668.523438 484.761719 649.753906 469.152344 C 631.007812 453.5625 618.296875 429.707031 614.507812 406.023438 C 609.515625 374.824219 620.269531 337.890625 643.277344 315.40625 C 650.683594 308.167969 659.074219 301.777344 668.136719 296.625 C 671.511719 294.703125 675.078125 292.90625 678.820312 291.351562 C 680.683594 290.578125 684.085938 289.375 683.96875 289.417969 C 684.136719 289.359375 684.308594 289.300781 684.484375 289.25 Z M 691.632812 312.953125 L 692.148438 312.785156 C 692.03125 312.824219 689.34375 313.78125 688.226562 314.246094 C 685.566406 315.351562 682.914062 316.679688 680.261719 318.183594 C 673.105469 322.257812 666.398438 327.355469 660.441406 333.171875 C 643.660156 349.574219 635.003906 378.199219 638.828125 402.085938 C 641.742188 420.308594 651.667969 438.597656 665.449219 450.0625 C 680.03125 462.1875 700.773438 470.289062 720.703125 471.089844 C 729.480469 471.441406 737.84375 470.371094 745.304688 467.808594 C 769.175781 459.609375 791.382812 437.777344 797.855469 414.371094 C 803.078125 395.46875 797.289062 371.921875 786.347656 352.277344 C 774.996094 331.90625 749.671875 317.175781 724.429688 312.164062 C 719.976562 311.277344 715.519531 310.707031 711.148438 310.53125 C 708.417969 310.417969 705.734375 310.464844 703.113281 310.679688 C 700.445312 310.902344 697.878906 311.289062 695.445312 311.867188 C 694.367188 312.125 691.773438 312.910156 691.632812 312.953125 Z M 691.632812 312.953125 " fill-opacity="1" fill-rule="nonzero"/><path fill="#c38c5e" d="M 94.746094 616.761719 L -42.453125 562.230469 L -94.671875 479.980469 L -17.386719 248.109375 L 18.761719 311.933594 L 94.746094 339.007812 L 170.734375 311.933594 L 269.117188 356.984375 L 346.402344 588.859375 L 231.945312 562.230469 Z M 94.746094 616.761719 " fill-opacity="1" fill-rule="evenodd"/><g clip-path="url(#6d3f965c29)"><g clip-path="url(#5e7d59703b)"><path fill="#a6642e" d="M 25.546875 281.515625 L -53.292969 593.867188 L -117.464844 488.105469 L -28.511719 218.007812 Z M 25.546875 281.515625 " fill-opacity="1" fill-rule="evenodd"/></g></g><g clip-path="url(#217785ed31)"><g clip-path="url(#f150a3dbb5)"><path fill="#a6642e" d="M 171.503906 307.980469 L 239.019531 594.324219 L 93.335938 650.609375 L 92.453125 311.996094 Z M 171.503906 307.980469 " fill-opacity="1" fill-rule="evenodd"/></g></g><path fill="#6c492d" d="M 232.058594 396.347656 C 231.492188 395.632812 230.925781 394.90625 230.359375 394.1875 C 227.480469 390.542969 210.917969 371.316406 209.617188 369.984375 C 207.828125 368.152344 207.859375 365.199219 209.683594 363.402344 C 211.507812 361.601562 214.441406 361.625 216.230469 363.46875 C 217.5625 364.832031 234.648438 384.640625 237.617188 388.398438 C 237.714844 388.519531 237.816406 388.65625 237.929688 388.789062 C 238.660156 387.851562 239.40625 386.898438 240.140625 385.960938 C 243.097656 382.238281 251.246094 372.054688 252.390625 370.710938 C 254.054688 368.757812 256.980469 368.53125 258.925781 370.210938 C 260.859375 371.886719 261.082031 374.828125 259.425781 376.78125 C 258.292969 378.101562 250.289062 388.097656 247.398438 391.761719 C 246.199219 393.285156 244.996094 394.804688 243.808594 396.324219 C 250.988281 405.625 257.992188 415.105469 264.570312 424.808594 C 266.003906 426.933594 265.460938 429.839844 263.347656 431.28125 C 261.238281 432.734375 258.359375 432.1875 256.914062 430.054688 C 250.886719 421.164062 244.507812 412.46875 237.949219 403.925781 C 232.046875 411.683594 226.289062 419.578125 220.84375 427.628906 C 219.398438 429.75 216.519531 430.300781 214.40625 428.855469 C 212.296875 427.402344 211.75 424.507812 213.183594 422.382812 C 219.1875 413.53125 225.535156 404.855469 232.058594 396.347656 Z M 232.058594 396.347656 " fill-opacity="1" fill-rule="evenodd"/><g clip-path="url(#6868a06c22)"><path fill="#571b00" d="M 95.402344 618.359375 L 96.070312 618.238281 L 95.449219 618.484375 C 95.015625 618.664062 94.746094 618.628906 94.746094 618.628906 C 94.746094 618.628906 94.480469 618.664062 94.046875 618.484375 L 93.425781 618.238281 L 94.089844 618.359375 L 93.402344 618.226562 L -43.128906 563.949219 C -43.484375 563.816406 -43.796875 563.558594 -44.007812 563.222656 L -96.242188 480.988281 C -96.539062 480.507812 -96.605469 479.925781 -96.429688 479.390625 L -19.144531 247.527344 C -18.910156 246.824219 -18.285156 246.332031 -17.5625 246.265625 C -16.832031 246.1875 -16.140625 246.554688 -15.773438 247.191406 L 20.027344 310.402344 L 94.746094 337.03125 L 170.121094 310.175781 C 170.566406 310.007812 171.066406 310.03125 171.5 310.234375 L 269.882812 355.296875 C 270.351562 355.507812 270.707031 355.914062 270.875 356.394531 L 348.160156 588.265625 C 348.371094 588.902344 348.226562 589.605469 347.78125 590.109375 C 347.324219 590.601562 346.648438 590.824219 345.992188 590.667969 L 232.089844 564.164062 L 96.09375 618.226562 Z M 94.746094 614.761719 L 231.257812 560.496094 C 231.613281 560.351562 231.992188 560.328125 232.359375 560.40625 L 343.601562 586.296875 L 267.617188 358.347656 L 170.65625 313.933594 L 95.371094 340.753906 C 94.96875 340.898438 94.523438 340.898438 94.125 340.753906 L 18.140625 313.675781 C 17.714844 313.53125 17.371094 313.242188 17.148438 312.847656 L -16.941406 252.648438 L -92.640625 479.722656 L -41.207031 560.71875 Z M 94.746094 614.761719 " fill-opacity="1" fill-rule="evenodd"/></g><path fill="#ffd6b4" d="M -59.0625 453.582031 C -60.589844 452.09375 -60.632812 449.636719 -59.152344 448.101562 C -57.675781 446.5625 -55.230469 446.523438 -53.699219 448.011719 C -44.59375 456.867188 -35.710938 471.933594 -24.304688 492.214844 C -21.386719 493.472656 -12.9375 496.835938 -3.195312 498.191406 C 4.503906 499.265625 13.070312 499.132812 20.183594 495.335938 C 26.332031 492.054688 32.0625 487.5 37.992188 483.433594 C 44.472656 478.988281 51.191406 475.121094 58.742188 473.59375 C 63.546875 472.625 70.230469 472.464844 76.46875 472.648438 C 83.527344 472.863281 89.992188 473.492188 92.265625 473.734375 C 95.050781 472.777344 104.566406 469.375 109.503906 465.894531 C 122.078125 457.027344 130.03125 442.292969 139.855469 430.710938 C 154.203125 413.789062 171.417969 400.332031 191.484375 391.742188 L 191.5 391.734375 C 193.957031 390.699219 203.589844 390.261719 209.449219 390.941406 C 211.5625 391.183594 213.082031 393.109375 212.839844 395.234375 C 212.59375 397.359375 210.679688 398.890625 208.566406 398.644531 C 205.140625 398.246094 200.164062 398.222656 196.785156 398.539062 C 195.761719 398.632812 194.929688 398.699219 194.488281 398.882812 C 175.527344 407.003906 159.28125 419.75 145.722656 435.742188 C 135.488281 447.808594 127.027344 463.003906 113.929688 472.242188 C 107.441406 476.820312 93.894531 481.359375 93.894531 481.359375 C 93.359375 481.539062 92.796875 481.59375 92.242188 481.53125 C 92.242188 481.53125 84.683594 480.652344 76.238281 480.398438 C 70.621094 480.230469 64.59375 480.320312 60.261719 481.195312 C 53.71875 482.519531 47.949219 485.992188 42.335938 489.839844 C 36.171875 494.066406 30.195312 498.773438 23.796875 502.1875 C 15.253906 506.746094 5 507.160156 -4.25 505.875 C -17.574219 504.023438 -28.683594 498.742188 -28.683594 498.742188 C -29.40625 498.402344 -30.003906 497.84375 -30.398438 497.144531 C -41.625 477.148438 -50.167969 462.234375 -59.0625 453.582031 Z M -59.0625 453.582031 " fill-opacity="1" fill-rule="evenodd"/><path fill="#6c492d" d="M -11.402344 322.835938 C -12.984375 322.707031 -14.382812 321.597656 -14.8125 319.972656 C -15.363281 317.902344 -14.140625 315.777344 -12.085938 315.222656 C -10.082031 314.6875 -8.632812 315.273438 -7.507812 316.363281 C -5.976562 317.84375 -5.929688 320.300781 -7.402344 321.84375 C -8.46875 322.957031 -10.039062 323.292969 -11.402344 322.835938 Z M -12.179688 322.472656 C -12.417969 322.328125 -12.644531 322.152344 -12.855469 321.953125 C -12.648438 322.152344 -12.425781 322.332031 -12.179688 322.472656 Z M -8.941406 335.296875 C -9.765625 333.324219 -8.84375 331.050781 -6.878906 330.21875 C -4.917969 329.394531 -2.65625 330.320312 -1.835938 332.292969 C -1.585938 332.894531 -1.332031 333.492188 -1.085938 334.089844 C -0.253906 336.0625 -1.171875 338.339844 -3.136719 339.167969 C -5.09375 340.003906 -7.359375 339.078125 -8.1875 337.105469 C -8.4375 336.503906 -8.691406 335.902344 -8.941406 335.296875 Z M -2.394531 351.425781 C -3.179688 349.4375 -2.214844 347.183594 -0.234375 346.394531 C 1.742188 345.605469 3.984375 346.582031 4.769531 348.566406 C 5.007812 349.171875 5.246094 349.769531 5.484375 350.375 C 6.277344 352.359375 5.316406 354.621094 3.339844 355.414062 C 1.367188 356.210938 -0.882812 355.242188 -1.671875 353.257812 C -1.914062 352.648438 -2.15625 352.039062 -2.394531 351.425781 Z M 4.695312 367.785156 C 3.738281 365.878906 4.496094 363.542969 6.394531 362.574219 C 8.292969 361.609375 10.617188 362.378906 11.578125 364.289062 C 11.859375 364.847656 12.148438 365.402344 12.4375 365.957031 C 13.433594 367.84375 12.71875 370.195312 10.839844 371.195312 C 8.960938 372.203125 6.625 371.484375 5.628906 369.59375 C 5.3125 368.996094 5.003906 368.394531 4.695312 367.785156 Z M 14.996094 383.25 C 13.511719 381.710938 13.546875 379.253906 15.074219 377.765625 C 16.597656 376.273438 19.042969 376.308594 20.527344 377.839844 C 20.929688 378.257812 21.339844 378.660156 21.757812 379.046875 C 23.328125 380.492188 23.433594 382.945312 22 384.523438 C 20.5625 386.101562 18.125 386.210938 16.550781 384.765625 C 16.027344 384.28125 15.507812 383.773438 14.996094 383.25 Z M 31.085938 393.347656 C 29.085938 392.613281 28.058594 390.386719 28.785156 388.375 C 29.519531 386.363281 31.734375 385.332031 33.730469 386.0625 C 34.300781 386.277344 34.875 386.472656 35.449219 386.664062 C 37.472656 387.332031 38.574219 389.523438 37.910156 391.558594 C 37.242188 393.589844 35.0625 394.699219 33.042969 394.03125 C 32.382812 393.8125 31.734375 393.585938 31.085938 393.347656 Z M 48.492188 397.820312 C 46.402344 397.394531 45.058594 395.347656 45.480469 393.246094 C 45.902344 391.152344 47.9375 389.792969 50.019531 390.21875 C 50.660156 390.347656 51.296875 390.476562 51.933594 390.609375 C 54.015625 391.035156 55.363281 393.085938 54.9375 395.183594 C 54.511719 397.28125 52.472656 398.632812 50.390625 398.207031 C 49.757812 398.074219 49.125 397.949219 48.492188 397.820312 Z M 64.769531 401.976562 C 62.773438 401.238281 61.75 399.007812 62.480469 397 C 63.21875 394.988281 65.433594 393.957031 67.433594 394.699219 C 68.089844 394.941406 68.738281 395.195312 69.378906 395.460938 C 71.347656 396.273438 72.289062 398.542969 71.480469 400.519531 C 70.667969 402.5 68.414062 403.445312 66.445312 402.632812 C 65.894531 402.40625 65.335938 402.183594 64.769531 401.976562 Z M 77.851562 410.28125 C 76.394531 408.722656 76.46875 406.265625 78.019531 404.796875 C 79.570312 403.332031 82.011719 403.410156 83.46875 404.964844 C 83.957031 405.492188 84.441406 406.039062 84.910156 406.605469 C 86.273438 408.246094 86.054688 410.691406 84.421875 412.0625 C 82.785156 413.433594 80.355469 413.214844 78.988281 411.574219 C 78.617188 411.121094 78.242188 410.695312 77.851562 410.28125 Z M 85.601562 423.960938 C 84.90625 421.941406 85.972656 419.730469 87.984375 419.027344 C 89.996094 418.332031 92.195312 419.40625 92.890625 421.425781 C 93.117188 422.085938 93.332031 422.742188 93.535156 423.40625 C 94.164062 425.449219 93.023438 427.625 90.992188 428.257812 C 88.957031 428.890625 86.792969 427.742188 86.167969 425.699219 C 85.988281 425.117188 85.796875 424.539062 85.601562 423.960938 Z M 88.847656 440.132812 C 88.667969 438 90.238281 436.121094 92.359375 435.941406 C 94.480469 435.761719 96.351562 437.34375 96.53125 439.476562 C 96.585938 440.148438 96.636719 440.828125 96.679688 441.503906 C 96.816406 443.640625 95.203125 445.488281 93.082031 445.625 C 90.957031 445.761719 89.121094 444.140625 88.984375 442.003906 C 88.945312 441.378906 88.898438 440.757812 88.847656 440.132812 Z M 88.976562 457.09375 C 89.089844 454.957031 90.902344 453.308594 93.027344 453.417969 C 95.152344 453.527344 96.785156 455.351562 96.679688 457.488281 C 96.644531 458.152344 96.609375 458.8125 96.570312 459.476562 C 96.441406 461.613281 94.613281 463.242188 92.488281 463.113281 C 90.367188 462.984375 88.746094 461.148438 88.875 459.011719 C 88.910156 458.371094 88.949219 457.730469 88.976562 457.09375 Z M 87.617188 474.378906 C 87.816406 472.246094 89.695312 470.679688 91.8125 470.878906 C 93.929688 471.074219 95.492188 472.964844 95.296875 475.09375 C 95.234375 475.742188 95.175781 476.394531 95.113281 477.042969 C 94.921875 479.171875 93.042969 480.742188 90.925781 480.542969 C 88.804688 480.347656 87.242188 478.460938 87.4375 476.328125 C 87.496094 475.679688 87.554688 475.027344 87.617188 474.378906 Z M 86.25 491.996094 C 86.355469 489.859375 88.164062 488.207031 90.289062 488.308594 C 92.414062 488.414062 94.054688 490.234375 93.953125 492.375 C 93.917969 493.011719 93.894531 493.648438 93.867188 494.285156 C 93.789062 496.425781 91.992188 498.09375 89.871094 498.015625 C 87.742188 497.933594 86.082031 496.125 86.164062 493.988281 C 86.1875 493.328125 86.214844 492.660156 86.25 491.996094 Z M 86.496094 510.035156 C 86.296875 507.902344 87.851562 506.011719 89.972656 505.808594 C 92.089844 505.605469 93.972656 507.171875 94.175781 509.300781 C 94.234375 509.921875 94.300781 510.539062 94.375 511.152344 C 94.621094 513.277344 93.113281 515.210938 91 515.464844 C 88.886719 515.71875 86.96875 514.195312 86.714844 512.070312 C 86.636719 511.394531 86.566406 510.71875 86.496094 510.035156 Z M 90.480469 528.074219 C 89.730469 526.074219 90.730469 523.835938 92.722656 523.082031 C 94.714844 522.324219 96.941406 523.332031 97.695312 525.335938 C 97.90625 525.902344 98.125 526.464844 98.359375 527.023438 C 99.183594 528.996094 98.261719 531.269531 96.296875 532.097656 C 94.335938 532.925781 92.074219 531.996094 91.25 530.023438 C 90.980469 529.378906 90.722656 528.726562 90.480469 528.074219 Z M 99.882812 544.234375 C 98.515625 542.597656 98.722656 540.148438 100.351562 538.769531 C 101.980469 537.390625 104.414062 537.605469 105.785156 539.242188 C 106.167969 539.699219 106.566406 540.15625 106.972656 540.609375 C 108.398438 542.195312 108.273438 544.652344 106.699219 546.085938 C 105.121094 547.519531 102.679688 547.398438 101.253906 545.8125 C 100.785156 545.289062 100.324219 544.761719 99.882812 544.234375 Z M 115.011719 555.988281 C 113.03125 555.207031 112.050781 552.960938 112.824219 550.964844 C 113.597656 548.972656 115.832031 547.988281 117.816406 548.765625 C 118.335938 548.964844 118.855469 549.148438 119.378906 549.3125 C 121.414062 549.9375 122.558594 552.105469 121.9375 554.15625 C 121.308594 556.203125 119.152344 557.351562 117.121094 556.726562 C 116.414062 556.507812 115.710938 556.261719 115.011719 555.988281 Z M 134.296875 557.273438 C 132.214844 557.695312 130.179688 556.332031 129.761719 554.238281 C 129.339844 552.136719 130.691406 550.09375 132.78125 549.667969 C 133.355469 549.554688 133.933594 549.421875 134.511719 549.277344 C 136.578125 548.765625 138.667969 550.035156 139.179688 552.109375 C 139.691406 554.1875 138.429688 556.292969 136.363281 556.808594 C 135.675781 556.980469 134.984375 557.132812 134.296875 557.273438 Z M 151.566406 550.757812 C 149.683594 551.753906 147.347656 551.027344 146.359375 549.132812 C 145.367188 547.238281 146.09375 544.890625 147.976562 543.894531 C 148.527344 543.601562 149.074219 543.304688 149.625 543.003906 C 151.488281 541.972656 153.835938 542.65625 154.859375 544.527344 C 155.886719 546.40625 155.203125 548.765625 153.34375 549.796875 C 152.753906 550.121094 152.164062 550.441406 151.566406 550.757812 Z M 166.753906 541.25 C 165.015625 542.480469 162.605469 542.0625 161.382812 540.316406 C 160.152344 538.570312 160.566406 536.144531 162.308594 534.914062 C 162.824219 534.542969 163.347656 534.171875 163.863281 533.796875 C 165.589844 532.550781 168 532.945312 169.242188 534.683594 C 170.488281 536.417969 170.09375 538.84375 168.367188 540.089844 C 167.828125 540.480469 167.292969 540.867188 166.753906 541.25 Z M 180.8125 530.679688 C 179.125 531.984375 176.699219 531.660156 175.410156 529.960938 C 174.113281 528.265625 174.4375 525.828125 176.125 524.523438 C 176.636719 524.128906 177.15625 523.730469 177.671875 523.332031 C 179.363281 522.035156 181.78125 522.363281 183.074219 524.058594 C 184.367188 525.761719 184.042969 528.195312 182.351562 529.496094 C 181.839844 529.890625 181.328125 530.285156 180.8125 530.679688 Z M 194.65625 520.40625 C 192.898438 521.621094 190.5 521.175781 189.292969 519.410156 C 188.085938 517.644531 188.53125 515.230469 190.285156 514.015625 C 190.832031 513.640625 191.378906 513.265625 191.925781 512.894531 C 193.695312 511.699219 196.089844 512.175781 197.277344 513.953125 C 198.464844 515.730469 197.992188 518.140625 196.222656 519.335938 C 195.699219 519.6875 195.175781 520.046875 194.65625 520.40625 Z M 209.105469 511.726562 C 207.199219 512.675781 204.878906 511.886719 203.941406 509.964844 C 202.996094 508.050781 203.78125 505.722656 205.691406 504.773438 C 206.292969 504.472656 206.90625 504.179688 207.515625 503.890625 C 209.445312 502.984375 211.742188 503.824219 212.640625 505.761719 C 213.542969 507.703125 212.707031 510.011719 210.78125 510.914062 C 210.21875 511.179688 209.660156 511.453125 209.105469 511.726562 Z M 224.429688 506.203125 C 222.335938 506.589844 220.324219 505.191406 219.945312 503.085938 C 219.5625 500.980469 220.949219 498.960938 223.046875 498.574219 C 223.753906 498.445312 224.453125 498.332031 225.148438 498.242188 C 227.257812 497.957031 229.195312 499.449219 229.476562 501.574219 C 229.757812 503.691406 228.273438 505.644531 226.167969 505.925781 C 225.59375 506.003906 225.015625 506.09375 224.429688 506.203125 Z M 239.992188 506.851562 C 237.933594 506.304688 236.707031 504.179688 237.253906 502.109375 C 237.796875 500.042969 239.910156 498.808594 241.96875 499.355469 C 242.648438 499.539062 243.324219 499.734375 243.996094 499.945312 C 246.03125 500.582031 247.160156 502.757812 246.527344 504.804688 C 245.890625 506.84375 243.730469 507.984375 241.699219 507.347656 C 241.132812 507.171875 240.5625 507.007812 239.992188 506.851562 Z M 254.824219 513.542969 C 253.003906 512.441406 252.414062 510.054688 253.507812 508.21875 C 254.609375 506.390625 256.980469 505.796875 258.800781 506.898438 C 259.375 507.25 259.945312 507.601562 260.515625 507.960938 C 262.316406 509.09375 262.867188 511.488281 261.738281 513.304688 C 260.609375 515.117188 258.226562 515.667969 256.425781 514.535156 C 255.894531 514.199219 255.359375 513.867188 254.824219 513.542969 Z M 269.027344 523.164062 C 267.289062 521.9375 266.867188 519.519531 268.089844 517.765625 C 269.3125 516.015625 271.71875 515.589844 273.460938 516.820312 C 273.988281 517.191406 274.515625 517.5625 275.042969 517.9375 C 276.789062 519.160156 277.21875 521.578125 276 523.332031 C 274.78125 525.089844 272.378906 525.519531 270.628906 524.296875 C 270.097656 523.921875 269.566406 523.546875 269.027344 523.164062 Z M 283.984375 532.882812 C 282.121094 531.847656 281.449219 529.484375 282.476562 527.613281 C 283.511719 525.742188 285.855469 525.058594 287.71875 526.097656 C 287.988281 526.246094 288.261719 526.398438 288.53125 526.546875 C 290.40625 527.558594 291.109375 529.914062 290.097656 531.796875 C 289.089844 533.679688 286.753906 534.386719 284.875 533.371094 C 284.578125 533.210938 284.285156 533.046875 283.984375 532.882812 Z M 283.984375 532.882812 " fill-opacity="1" fill-rule="evenodd"/><path fill="#1a1a1a" d="M 394.011719 318.4375 C 391.925781 318.617188 391.109375 318.765625 389.054688 319.214844 C 379.652344 321.261719 370.96875 327.203125 365.066406 334.976562 C 351.269531 353.152344 349.929688 383.523438 368.25 396.566406 C 383.761719 407.613281 398.816406 409.769531 416.851562 401.613281 C 441.203125 390.601562 444.0625 352.019531 429.523438 333.480469 C 424.613281 327.214844 418.839844 322.96875 411.332031 320.226562 C 405.378906 318.058594 400.136719 317.917969 394.011719 318.4375 " fill-opacity="1" fill-rule="evenodd"/><path fill="#cccccc" d="M 394.183594 321.664062 C 392.253906 321.832031 391.5 321.96875 389.59375 322.382812 C 380.878906 324.28125 372.832031 329.785156 367.367188 336.992188 C 354.582031 353.832031 353.339844 381.976562 370.3125 394.0625 C 384.6875 404.296875 398.636719 406.296875 415.351562 398.738281 C 437.914062 388.535156 440.566406 352.78125 427.09375 335.601562 C 422.542969 329.796875 417.191406 325.859375 410.234375 323.324219 C 404.722656 321.3125 399.863281 321.179688 394.183594 321.664062 " fill-opacity="1" fill-rule="evenodd"/><path fill="#ffffff" d="M 394.183594 321.664062 C 392.253906 321.832031 391.5 321.96875 389.59375 322.382812 C 380.878906 324.28125 372.832031 329.785156 367.367188 336.992188 C 361.175781 345.140625 357.695312 355.941406 357.671875 366.285156 C 358.503906 375.8125 362.453125 384.585938 370.144531 390.066406 C 384.523438 400.300781 398.46875 402.300781 415.183594 394.742188 C 428.816406 388.578125 435.175781 373.089844 435.109375 358.007812 C 434.425781 349.542969 431.707031 341.484375 427.09375 335.601562 C 422.542969 329.796875 417.191406 325.859375 410.234375 323.324219 C 404.722656 321.3125 399.863281 321.179688 394.183594 321.664062 " fill-opacity="1" fill-rule="evenodd"/><path fill="#1a1a1a" d="M 383.402344 340.472656 C 384.265625 340.714844 384.601562 340.839844 385.433594 341.195312 C 389.242188 342.804688 392.445312 346.003906 394.332031 349.753906 C 398.738281 358.519531 396.9375 371.449219 388.1875 375.5 C 380.777344 378.929688 374.253906 378.644531 367.277344 373.769531 C 357.855469 367.1875 359.65625 350.671875 367.238281 344.003906 C 369.796875 341.746094 372.566406 340.414062 375.949219 339.851562 C 378.632812 339.410156 380.855469 339.765625 383.402344 340.472656 " fill-opacity="1" fill-rule="evenodd"/><path fill="#ffffff" d="M 380.710938 342.128906 C 380.398438 342.085938 379.90625 342.035156 379.59375 342.019531 C 378.273438 341.957031 376.839844 342.019531 375.621094 342.527344 C 373.464844 343.425781 372.425781 343.222656 374.519531 346.917969 C 374.691406 347.226562 374.847656 347.546875 375.144531 347.742188 C 376.160156 348.417969 379.101562 348.335938 380.46875 348.464844 C 381.40625 348.550781 381.664062 348.664062 382.640625 348.519531 C 384.246094 348.285156 387.347656 348.082031 387.527344 346.027344 C 387.71875 343.8125 382.304688 342.351562 380.710938 342.128906 Z M 367.496094 347.046875 C 368.277344 345.765625 369.769531 344.257812 371.355469 345.226562 C 372.179688 345.726562 373.1875 347.671875 372.355469 348.445312 C 371.824219 348.9375 371.65625 348.117188 369.75 348.914062 C 369.011719 349.226562 368.582031 349.386719 367.988281 348.6875 C 367.550781 348.171875 367.003906 347.855469 367.496094 347.046875 " fill-opacity="1" fill-rule="evenodd"/><path fill="#1a1a1a" d="M 421.503906 302.152344 C 420.4375 287.230469 384.90625 283.808594 372.5625 303.476562 C 388.097656 290.082031 413.523438 290.234375 421.503906 302.152344 " fill-opacity="1" fill-rule="evenodd"/><g clip-path="url(#68007e4913)"><path fill="#1a1a1a" d="M 483.570312 319.335938 C 485.664062 319.335938 486.484375 319.414062 488.570312 319.683594 C 498.113281 320.925781 507.261719 326.105469 513.792969 333.351562 C 529.058594 350.285156 532.933594 380.4375 515.769531 394.992188 C 501.234375 407.320312 486.414062 410.75 467.761719 404.160156 C 442.574219 395.257812 436.5 357.058594 449.4375 337.34375 C 453.808594 330.6875 459.207031 325.960938 466.460938 322.59375 C 472.207031 319.921875 477.421875 319.335938 483.570312 319.335938 " fill-opacity="1" fill-rule="evenodd"/></g><path fill="#cccccc" d="M 483.664062 322.566406 C 485.601562 322.566406 486.367188 322.636719 488.296875 322.890625 C 497.140625 324.039062 505.617188 328.839844 511.667969 335.550781 C 525.816406 351.246094 529.40625 379.183594 513.5 392.671875 C 500.03125 404.09375 486.300781 407.273438 469.015625 401.164062 C 445.679688 392.917969 440.050781 357.519531 452.039062 339.253906 C 456.089844 333.082031 461.089844 328.703125 467.8125 325.582031 C 473.136719 323.109375 477.96875 322.566406 483.664062 322.566406 " fill-opacity="1" fill-rule="evenodd"/><path fill="#ffffff" d="M 483.664062 322.566406 C 485.601562 322.566406 486.367188 322.636719 488.296875 322.890625 C 497.140625 324.039062 505.617188 328.839844 511.667969 335.550781 C 518.476562 343.105469 522.839844 353.496094 523.761719 363.746094 C 523.691406 373.246094 520.484375 382.257812 513.320312 388.335938 C 499.851562 399.757812 486.117188 402.9375 468.832031 396.828125 C 454.792969 391.867188 447.164062 377.078125 445.925781 362.101562 C 445.921875 353.664062 447.960938 345.46875 452.039062 339.253906 C 456.085938 333.082031 461.089844 328.703125 467.808594 325.582031 C 473.136719 323.109375 477.96875 322.566406 483.664062 322.566406 " fill-opacity="1" fill-rule="evenodd"/><path fill="#1a1a1a" d="M 471.230469 341.367188 C 472.105469 341.582031 472.441406 341.699219 473.285156 342.023438 C 477.144531 343.511719 480.445312 346.605469 482.445312 350.292969 C 487.125 358.917969 485.734375 371.894531 477.113281 376.222656 C 469.816406 379.890625 463.289062 379.816406 456.160156 375.164062 C 446.535156 368.886719 447.816406 352.324219 455.1875 345.414062 C 457.675781 343.078125 460.402344 341.65625 463.765625 340.988281 C 466.429688 340.457031 468.664062 340.742188 471.230469 341.367188 " fill-opacity="1" fill-rule="evenodd"/><path fill="#ffffff" d="M 468.59375 343.109375 C 468.28125 343.074219 467.789062 343.042969 467.476562 343.035156 C 466.152344 343.015625 464.722656 343.125 463.519531 343.671875 C 461.390625 344.636719 460.347656 344.46875 462.554688 348.09375 C 462.738281 348.394531 462.90625 348.710938 463.207031 348.898438 C 464.246094 349.539062 467.179688 349.367188 468.550781 349.449219 C 469.492188 349.503906 469.753906 349.609375 470.726562 349.4375 C 472.324219 349.148438 475.417969 348.84375 475.527344 346.789062 C 475.652344 344.566406 470.195312 343.28125 468.59375 343.109375 " fill-opacity="1" fill-rule="evenodd"/><path fill="#ffffff" d="M 455.542969 348.445312 C 455.074219 349.269531 455.628906 349.570312 456.082031 350.070312 C 456.699219 350.753906 457.125 350.578125 457.851562 350.242188 C 459.730469 349.386719 459.925781 350.199219 460.441406 349.6875 C 461.25 348.890625 460.179688 346.980469 459.339844 346.503906 C 457.722656 345.589844 456.28125 347.140625 455.542969 348.445312 " fill-opacity="1" fill-rule="evenodd"/><path fill="#1a1a1a" d="M 459.464844 300.214844 C 462.117188 285.4375 497.96875 284.824219 508.207031 305.378906 C 494.117188 290.820312 468.703125 288.972656 459.464844 300.214844 " fill-opacity="1" fill-rule="evenodd"/><path stroke-linecap="round" transform="matrix(0.44035, 0, 0, 0.431108, 329.568503, 351.596282)" fill="none" stroke-linejoin="round" d="M 129.774948 238.360861 C 151.339847 299.286772 231.363277 329.867519 290.025835 307.287601 C 327.08801 293.016586 350.7819 261.819693 370.217809 228.810607 " stroke="#000000" stroke-width="8.4" stroke-opacity="1" stroke-miterlimit="1.5"/><g clip-path="url(#7a82cded49)"><path stroke-linecap="round" transform="matrix(0.44035, 0, 0, 0.431108, 329.568503, 351.596282)" fill="none" stroke-linejoin="round" d="M 359.022867 216.197748 C 370.829894 224.860028 383.852219 232.081615 398.897085 231.365799 " stroke="#000000" stroke-width="8.4" stroke-opacity="1" stroke-miterlimit="1.5"/></g><g clip-path="url(#b3fa7cef57)"><path stroke-linecap="round" transform="matrix(0.44035, 0, 0, 0.431108, 329.568503, 351.596282)" fill="none" stroke-linejoin="round" d="M 141.457783 214.231519 C 132.977305 230.794958 119.857401 242.891343 103.694815 251.834512 " stroke="#000000" stroke-width="8.4" stroke-opacity="1" stroke-miterlimit="1.5"/></g></svg>