<svg xmlns="http://www.w3.org/2000/svg" xmlns:xlink="http://www.w3.org/1999/xlink" width="1152" zoomAndPan="magnify" viewBox="0 0 864 863.999991" height="1152" preserveAspectRatio="xMidYMid meet" version="1.0"><defs><clipPath id="46f10b83f0"><path d="M 89 168 L 617 168 L 617 696.863281 L 89 696.863281 Z M 89 168 " clip-rule="nonzero"/></clipPath><clipPath id="8850b5281a"><path d="M 223.050781 345.394531 L 496.652344 345.394531 L 496.652344 459.980469 L 223.050781 459.980469 Z M 223.050781 345.394531 " clip-rule="nonzero"/></clipPath><clipPath id="2668700749"><path d="M 385 371 L 449.953125 371 L 449.953125 435.875 L 385 435.875 Z M 385 371 " clip-rule="nonzero"/></clipPath><clipPath id="b5d8306ed3"><path d="M 384.6875 370.417969 L 449.945312 370.417969 L 449.945312 435.863281 L 384.6875 435.863281 Z M 384.6875 370.417969 " clip-rule="nonzero"/></clipPath><clipPath id="1ff121d62e"><path d="M 270 371 L 335 371 L 335 435.875 L 270 435.875 Z M 270 371 " clip-rule="nonzero"/></clipPath><clipPath id="52a3b0c71e"><path d="M 269.890625 370.417969 L 335 370.417969 L 335 435.863281 L 269.890625 435.863281 Z M 269.890625 370.417969 " clip-rule="nonzero"/></clipPath><clipPath id="abb5c02667"><path d="M 433.328125 250 L 802.808594 250 L 802.808594 614.148438 L 433.328125 614.148438 Z M 433.328125 250 " clip-rule="nonzero"/></clipPath><clipPath id="2354336e24"><path d="M 280.109375 496.265625 L 439.566406 496.265625 L 439.566406 538.382812 L 280.109375 538.382812 Z M 280.109375 496.265625 " clip-rule="nonzero"/></clipPath><clipPath id="c52ecf8ac9"><path d="M 431.390625 486.367188 L 449.945312 486.367188 L 449.945312 511.9375 L 431.390625 511.9375 Z M 431.390625 486.367188 " clip-rule="nonzero"/></clipPath></defs><rect x="-86.4" width="1036.8" fill="#ffffff" y="-86.399999" height="1036.79999" fill-opacity="1"/><rect x="-86.4" width="1036.8" fill="#ffb8b8" y="-86.399999" height="1036.79999" fill-opacity="1"/><g clip-path="url(#46f10b83f0)"><path fill="#ff42ff" d="M 249.273438 254.023438 C 247.03125 268.925781 248.078125 284.109375 247.421875 299.164062 C 246.761719 314.222656 244.167969 329.78125 235.613281 342.1875 C 229.816406 350.597656 221.546875 357.105469 212.5 361.855469 C 203.457031 366.605469 193.625 369.679688 183.710938 372.136719 C 163.878906 377.054688 143.109375 379.738281 125.09375 389.375 C 109.527344 397.707031 96.476562 411.554688 91.386719 428.460938 C 88.839844 436.914062 88.320312 446.011719 90.207031 454.636719 C 92.09375 463.261719 96.414062 471.386719 102.742188 477.542969 C 109.058594 483.6875 117.160156 487.738281 125.542969 490.445312 C 133.925781 493.152344 142.65625 494.589844 151.332031 496.128906 C 160.007812 497.667969 168.714844 499.324219 176.957031 502.4375 C 185.199219 505.550781 193.023438 510.214844 198.707031 516.949219 C 203.53125 522.65625 206.664062 529.699219 208.1875 537.015625 C 209.714844 544.332031 209.671875 551.925781 208.589844 559.320312 C 206.425781 574.113281 200.207031 587.957031 194.207031 601.648438 C 188.203125 615.339844 182.28125 629.363281 180.761719 644.234375 C 180.003906 651.671875 180.375 659.269531 182.375 666.46875 C 184.375 673.671875 188.046875 680.472656 193.347656 685.742188 C 200.140625 692.492188 209.4375 696.5 218.957031 697.523438 C 228.480469 698.550781 238.203125 696.699219 247.003906 692.917969 C 264.605469 685.355469 278.082031 670.59375 289.273438 655.046875 C 300.464844 639.496094 310.007812 622.683594 322.785156 608.410156 C 329.171875 601.273438 336.375 594.792969 344.566406 589.828125 C 352.757812 584.863281 361.976562 581.445312 371.515625 580.609375 C 381.746094 579.714844 392.121094 581.816406 401.558594 585.863281 C 410.996094 589.910156 419.539062 595.859375 427.203125 602.691406 C 442.539062 616.355469 454.371094 633.414062 467.714844 649.03125 C 481.054688 664.644531 496.695312 679.332031 516.1875 685.800781 C 525.933594 689.035156 536.511719 690.078125 546.5625 687.976562 C 556.613281 685.878906 566.09375 680.519531 572.460938 672.464844 C 580.3125 662.53125 582.953125 649.191406 581.777344 636.582031 C 580.597656 623.976562 575.917969 611.953125 570.382812 600.5625 C 564.847656 589.175781 558.410156 578.222656 553.371094 566.605469 C 548.332031 554.992188 544.683594 542.5 545.140625 529.847656 C 545.710938 514.152344 552.5625 499.273438 561.40625 486.292969 C 570.25 473.316406 581.113281 461.863281 590.992188 449.652344 C 600.875 437.445312 609.929688 424.160156 614.304688 409.074219 C 616.496094 401.535156 617.46875 393.597656 616.710938 385.78125 C 615.953125 377.964844 613.429688 370.273438 609.023438 363.773438 C 601.34375 352.4375 588.433594 345.441406 575.089844 342.382812 C 561.742188 339.320312 547.855469 339.8125 534.203125 340.835938 C 520.550781 341.855469 506.855469 343.394531 493.203125 342.367188 C 479.546875 341.34375 465.714844 337.542969 455.019531 328.996094 C 447.199219 322.746094 441.398438 314.21875 437.367188 305.054688 C 433.332031 295.890625 430.984375 286.070312 429.25 276.210938 C 425.777344 256.492188 424.566406 236.011719 416.4375 217.714844 C 408.257812 199.308594 393.101562 184.105469 374.71875 175.871094 C 356.339844 167.632812 334.90625 166.4375 315.726562 172.582031 C 298.46875 178.910156 282.960938 189.953125 271.339844 204.195312 C 259.71875 218.4375 252.007812 235.84375 249.273438 254.023438 Z M 249.273438 254.023438 " fill-opacity="1" fill-rule="nonzero"/></g><path fill="#000000" d="M 439.988281 346.597656 C 418.003906 346.765625 396.816406 354.617188 375.234375 357.753906 C 366.230469 359.066406 356.945312 359.386719 347.921875 358.167969 C 335.925781 356.546875 324.3125 352.246094 312.324219 350.316406 C 301.613281 348.59375 290.765625 346.796875 279.984375 346.722656 C 261.144531 346.597656 242.921875 353.332031 224.453125 356.972656 C 224.453125 363.140625 223.355469 371.058594 226.117188 375.398438 C 228.964844 379.871094 233.769531 383.960938 235.015625 390.023438 C 237.972656 404.398438 242.167969 418.488281 247.53125 432 C 250.140625 438.566406 255.058594 443.140625 260.554688 446.292969 C 273.789062 453.886719 289.449219 455.003906 303.96875 452.617188 C 324.640625 449.214844 335.855469 431.5 344.414062 411.257812 C 347.617188 403.03125 347.972656 393.535156 352.191406 386.015625 C 354.695312 381.546875 360.511719 383.429688 364.671875 383.414062 C 368.828125 383.394531 372.351562 391.292969 373.640625 396.550781 C 378.210938 415.15625 385.824219 434.894531 400.957031 444.640625 C 423.550781 459.199219 459.152344 456.472656 473.8125 430.222656 C 479.550781 419.945312 481.136719 407.480469 484.015625 395.847656 C 485.765625 388.765625 487.332031 380.324219 493.566406 376.429688 C 496.078125 374.859375 494.316406 368.585938 494.6875 364.941406 C 495.089844 360.972656 495.871094 357.460938 490.921875 356.679688 C 482.296875 355.320312 473.925781 351.179688 465.09375 349.78125 C 456.726562 348.453125 448.527344 346.535156 439.988281 346.597656 Z M 294.632812 353.210938 C 300.875 353.164062 307.089844 353.6875 313.15625 355.152344 C 349.300781 363.882812 350.03125 380.890625 335.152344 416.050781 C 323.027344 444.699219 297.910156 451.878906 272.605469 445.011719 C 260.9375 441.847656 252.960938 432.546875 249.199219 419.808594 C 245.226562 406.367188 242.222656 392.085938 242.902344 377.957031 C 243.816406 359.035156 262.550781 356.378906 275.96875 354.652344 C 282.125 353.863281 288.394531 353.253906 294.636719 353.207031 Z M 426.605469 353.210938 C 432.84375 353.253906 439.113281 353.867188 445.269531 354.65625 C 458.6875 356.378906 477.425781 359.039062 478.335938 377.957031 C 479.015625 392.085938 476.011719 406.367188 472.039062 419.8125 C 468.277344 432.546875 460.300781 441.847656 448.636719 445.011719 C 423.328125 451.878906 398.210938 444.703125 386.082031 416.050781 C 371.203125 380.890625 371.9375 363.882812 408.078125 355.152344 C 414.144531 353.6875 420.359375 353.167969 426.601562 353.210938 Z M 426.605469 353.210938 " fill-opacity="1" fill-rule="nonzero"/><g clip-path="url(#8850b5281a)"><path stroke-linecap="butt" transform="matrix(0.473656, 0, 0, 0.471931, 205.43954, 291.831977)" fill="none" stroke-linejoin="miter" d="M 495.188012 116.046021 C 448.773783 116.401939 404.041946 133.039048 358.477161 139.685615 C 339.467779 142.466743 319.864613 143.145471 300.813996 140.562995 C 275.487398 137.12797 250.969007 128.014807 225.658903 123.925886 C 203.045574 120.275654 180.143599 116.468156 157.381824 116.31089 C 117.606446 116.046021 79.134097 130.31586 40.142186 138.030181 C 40.142186 151.09983 37.824774 167.877652 43.655417 177.073586 C 49.667495 186.550944 59.811329 195.21714 62.442129 208.063306 C 68.685123 238.523287 77.542422 268.379034 88.865581 297.009761 C 94.37459 310.923682 104.757589 320.616246 116.361146 327.295921 C 144.30205 343.386737 177.364353 345.754008 208.018527 340.696658 C 251.661757 333.487244 275.338951 295.950283 293.408172 253.057995 C 300.170729 235.626278 300.921208 215.50448 309.827989 199.570931 C 315.114329 190.10185 327.394142 194.091445 336.177218 194.058336 C 344.952048 194.01695 352.39086 210.753386 355.112376 221.894455 C 364.76139 261.318609 380.834832 303.143143 412.783788 323.794679 C 460.484552 354.643687 535.647893 348.866223 566.598959 293.243649 C 578.713831 271.466418 582.062121 245.053973 588.140175 220.404564 C 591.83484 205.398057 595.141895 187.511096 608.304139 179.258759 C 613.606973 175.931337 609.887567 162.638204 610.671034 154.915605 C 611.520477 146.506002 613.169881 139.064827 602.720907 137.409393 C 584.511486 134.528939 566.838122 125.75514 548.19161 122.791913 C 530.526493 119.977676 513.215998 115.913586 495.188012 116.046021 Z M 188.308149 130.059268 C 201.486887 129.959942 214.607896 131.069082 227.415518 134.17302 C 303.725194 152.672493 305.267387 188.711285 273.854488 263.214081 C 248.255738 323.918837 195.227399 339.132273 141.803203 324.58101 C 117.169354 317.876503 100.328939 298.168565 92.387059 271.176717 C 83.999839 242.69498 77.657881 212.433651 79.092862 182.495131 C 81.022665 142.400526 120.575373 136.772051 148.903887 133.113543 C 161.901191 131.441555 175.137658 130.150316 188.316396 130.05099 Z M 466.933721 130.059268 C 480.104212 130.150316 493.34068 131.449832 506.337983 133.12182 C 534.666497 136.772051 574.227452 142.408803 576.149008 182.495131 C 577.58399 212.433651 571.242031 242.69498 562.854812 271.184995 C 554.912931 298.168565 538.072516 317.876503 513.446915 324.58101 C 460.014472 339.132273 406.986133 323.927114 381.379135 263.214081 C 349.966236 188.711285 351.516676 152.672493 427.818105 134.17302 C 440.625727 131.069082 453.746736 129.968219 466.925474 130.059268 Z M 466.933721 130.059268 " stroke="#000000" stroke-width="5" stroke-opacity="1" stroke-miterlimit="4"/></g><g clip-path="url(#2668700749)"><path fill="#ffffff" d="M 449.308594 403.140625 C 449.308594 420.859375 435.039062 435.222656 417.4375 435.222656 C 399.835938 435.222656 385.566406 420.859375 385.566406 403.140625 C 385.566406 385.421875 399.835938 371.0625 417.4375 371.0625 C 435.039062 371.0625 449.308594 385.421875 449.308594 403.140625 " fill-opacity="1" fill-rule="nonzero"/></g><g clip-path="url(#b5d8306ed3)"><path fill="#000000" d="M 417.4375 371.699219 C 400.214844 371.699219 386.203125 385.804688 386.203125 403.140625 C 386.203125 420.480469 400.214844 434.585938 417.4375 434.585938 C 434.660156 434.585938 448.671875 420.480469 448.671875 403.140625 C 448.671875 385.804688 434.660156 371.699219 417.4375 371.699219 Z M 417.4375 435.863281 C 399.511719 435.863281 384.929688 421.183594 384.929688 403.140625 C 384.929688 385.097656 399.511719 370.417969 417.4375 370.417969 C 435.359375 370.417969 449.941406 385.097656 449.941406 403.140625 C 449.941406 421.183594 435.359375 435.863281 417.4375 435.863281 " fill-opacity="1" fill-rule="nonzero"/></g><path fill="#000000" d="M 437.644531 403.140625 C 437.644531 414.378906 428.597656 423.488281 417.4375 423.488281 C 406.277344 423.488281 397.226562 414.378906 397.226562 403.140625 C 397.226562 391.90625 406.277344 382.796875 417.4375 382.796875 C 428.597656 382.796875 437.644531 391.90625 437.644531 403.140625 " fill-opacity="1" fill-rule="nonzero"/><path fill="#ffffff" d="M 429.875 396.101562 C 429.875 399.125 427.4375 401.578125 424.433594 401.578125 C 421.429688 401.578125 418.992188 399.125 418.992188 396.101562 C 418.992188 393.074219 421.429688 390.621094 424.433594 390.621094 C 427.4375 390.621094 429.875 393.074219 429.875 396.101562 " fill-opacity="1" fill-rule="nonzero"/><g clip-path="url(#1ff121d62e)"><path fill="#ffffff" d="M 334.265625 403.140625 C 334.265625 420.859375 319.996094 435.222656 302.394531 435.222656 C 284.792969 435.222656 270.527344 420.859375 270.527344 403.140625 C 270.527344 385.421875 284.792969 371.0625 302.394531 371.0625 C 319.996094 371.0625 334.265625 385.421875 334.265625 403.140625 " fill-opacity="1" fill-rule="nonzero"/></g><g clip-path="url(#52a3b0c71e)"><path fill="#000000" d="M 302.394531 371.699219 C 285.171875 371.699219 271.160156 385.804688 271.160156 403.140625 C 271.160156 420.480469 285.171875 434.585938 302.394531 434.585938 C 319.617188 434.585938 333.628906 420.480469 333.628906 403.140625 C 333.628906 385.804688 319.617188 371.699219 302.394531 371.699219 Z M 302.394531 435.863281 C 284.472656 435.863281 269.890625 421.183594 269.890625 403.140625 C 269.890625 385.097656 284.472656 370.417969 302.394531 370.417969 C 320.320312 370.417969 334.902344 385.097656 334.902344 403.140625 C 334.902344 421.183594 320.320312 435.863281 302.394531 435.863281 " fill-opacity="1" fill-rule="nonzero"/></g><path fill="#000000" d="M 322.605469 403.140625 C 322.605469 414.378906 313.558594 423.488281 302.394531 423.488281 C 291.234375 423.488281 282.183594 414.378906 282.183594 403.140625 C 282.183594 391.90625 291.234375 382.796875 302.394531 382.796875 C 313.558594 382.796875 322.605469 391.90625 322.605469 403.140625 " fill-opacity="1" fill-rule="nonzero"/><path fill="#ffffff" d="M 314.832031 396.101562 C 314.832031 399.125 312.394531 401.578125 309.390625 401.578125 C 306.386719 401.578125 303.949219 399.125 303.949219 396.101562 C 303.949219 393.074219 306.386719 390.621094 309.390625 390.621094 C 312.394531 390.621094 314.832031 393.074219 314.832031 396.101562 " fill-opacity="1" fill-rule="nonzero"/><path fill="#db982c" d="M 788.355469 309.347656 C 788.273438 309.808594 788.144531 310.269531 787.976562 310.71875 L 773.417969 350.027344 L 773.425781 350.027344 L 746.960938 421.46875 L 736.054688 426.59375 L 764.605469 348.191406 L 770.136719 333.003906 C 770.355469 332.394531 770.289062 331.730469 769.957031 331.183594 C 769.617188 330.628906 769.058594 330.261719 768.410156 330.175781 L 765.351562 329.773438 L 766.683594 326.140625 C 766.855469 325.660156 766.800781 325.132812 766.535156 324.6875 C 766.265625 324.25 765.820312 323.957031 765.3125 323.894531 L 752.960938 322.285156 L 732.300781 319.59375 L 732.074219 319.164062 C 728.847656 313.003906 724.230469 307.546875 718.71875 303.378906 C 717.652344 302.566406 716.574219 301.820312 715.503906 301.15625 C 710.1875 297.800781 704.5 295.71875 698.585938 294.957031 L 691.144531 294 L 691.84375 288.652344 L 760.277344 296.832031 L 781.007812 299.308594 C 782.953125 299.550781 784.753906 300.433594 786.078125 301.804688 C 786.5 302.234375 786.898438 302.746094 787.253906 303.320312 C 788.367188 305.136719 788.753906 307.277344 788.355469 309.347656 Z M 678.671875 584.128906 C 678.363281 584.976562 677.589844 585.527344 676.699219 585.527344 C 676.5625 585.527344 676.417969 585.511719 676.28125 585.488281 L 462.859375 543.984375 C 462.214844 543.855469 461.671875 543.449219 461.371094 542.882812 C 461.070312 542.289062 461.050781 541.636719 461.328125 541.03125 L 462.5625 538.277344 L 458.667969 537.523438 C 458.164062 537.425781 457.738281 537.105469 457.5 536.644531 C 457.261719 536.179688 457.246094 535.648438 457.464844 535.179688 L 473.738281 499.03125 L 473.777344 498.96875 L 528.277344 378 L 539.066406 354.066406 L 539.097656 354.003906 L 539.101562 353.984375 L 539.148438 353.882812 L 539.148438 353.851562 L 539.175781 353.800781 L 551.101562 327.332031 L 551.136719 327.300781 L 551.203125 327.105469 L 551.238281 327.03125 L 563.914062 298.902344 C 564.1875 298.289062 564.777344 297.90625 565.453125 297.90625 C 565.523438 297.90625 565.597656 297.910156 565.660156 297.917969 L 590.484375 301.144531 L 590.808594 300.792969 C 594.988281 296.253906 600.167969 292.476562 605.796875 289.867188 C 606.949219 289.324219 608.097656 288.84375 609.226562 288.4375 C 614.15625 286.605469 619.195312 285.675781 624.210938 285.675781 C 625.882812 285.675781 627.5625 285.78125 629.199219 285.992188 L 636.625 286.949219 L 637.261719 282.132812 L 566.183594 273.644531 C 565.839844 273.601562 565.503906 273.582031 565.160156 273.582031 C 561.851562 273.582031 558.824219 275.527344 557.441406 278.535156 L 435.324219 544.117188 C 434.738281 545.398438 434.46875 546.804688 434.554688 548.179688 C 434.628906 549.339844 434.933594 550.460938 435.460938 551.507812 C 436.082031 552.734375 436.992188 553.804688 438.09375 554.589844 C 438.652344 554.992188 439.269531 555.332031 439.933594 555.59375 L 440.109375 555.660156 L 440.117188 555.660156 C 440.542969 555.8125 440.953125 555.929688 441.335938 556.003906 L 666.503906 602.53125 C 666.882812 602.613281 667.257812 602.675781 667.613281 602.710938 C 668.265625 602.800781 668.925781 602.84375 669.582031 602.84375 C 675.191406 602.84375 680.226562 599.710938 682.71875 594.675781 C 682.960938 594.191406 683.175781 593.691406 683.363281 593.195312 L 740.75 438.234375 L 729.96875 443.289062 Z M 678.671875 584.128906 " fill-opacity="1" fill-rule="nonzero"/><path fill="#f7eaad" d="M 633.609375 487.28125 C 633.535156 487.296875 633.46875 487.308594 633.394531 487.308594 L 621.960938 488.238281 C 621.671875 487.445312 621.320312 486.691406 620.910156 485.957031 L 629.316406 478.007812 C 631.605469 480.128906 633.367188 483.9375 633.609375 487.28125 Z M 633.609375 487.28125 " fill-opacity="1" fill-rule="nonzero"/><path fill="#e6c550" d="M 745.710938 384.414062 L 659.777344 371.753906 L 664.894531 357.371094 L 751.324219 368.972656 Z M 617.71875 568.683594 L 672.953125 579.429688 C 673.078125 579.453125 673.203125 579.464844 673.328125 579.464844 C 674.128906 579.464844 674.855469 578.957031 675.125 578.199219 L 686.027344 548.265625 L 628.714844 538.390625 Z M 678.863281 400.925781 L 624.0625 392.523438 L 614.734375 416.792969 L 669.816406 425.863281 Z M 786.335938 415.914062 C 785.027344 412.226562 783.015625 408.503906 781.089844 406.207031 L 780.628906 405.65625 L 747.3125 421.296875 L 736.40625 426.425781 L 734.308594 427.402344 L 727.121094 430.78125 L 720.09375 434.078125 L 629.105469 476.808594 L 630.046875 477.746094 C 632.265625 479.957031 633.921875 483.519531 634.265625 486.824219 L 634.398438 488.128906 L 729.914062 443.3125 L 732.011719 442.335938 L 740.40625 438.390625 L 742.816406 437.261719 L 786.617188 416.710938 Z M 538.855469 353.949219 L 544.5 354.78125 L 546.171875 355.023438 L 581.582031 360.238281 L 593.058594 332.714844 L 551.042969 326.894531 Z M 503.640625 546.507812 L 560.90625 557.636719 L 567.507812 540.464844 L 574.152344 523.152344 L 517.453125 513.382812 Z M 524.988281 402.007812 L 561.648438 408.046875 L 571.484375 384.457031 L 534.882812 378.847656 L 533.21875 378.597656 L 528.097656 377.808594 L 517.742188 400.816406 L 523.328125 401.726562 Z M 524.988281 402.007812 " fill-opacity="1" fill-rule="nonzero"/><path fill="#fff5ca" d="M 766.734375 324.574219 C 766.425781 324.070312 765.917969 323.738281 765.339844 323.667969 L 752.796875 322.03125 L 752.792969 322.039062 L 732.195312 319.351562 L 732.921875 320.890625 C 733.585938 322.292969 734.183594 323.769531 734.714844 325.285156 C 734.914062 325.839844 735.09375 326.394531 735.265625 326.953125 C 735.769531 328.613281 736.179688 330.3125 736.488281 332.015625 C 736.585938 332.550781 736.421875 333.085938 736.054688 333.476562 C 735.726562 333.816406 735.296875 334 734.84375 334 C 734.777344 334 734.714844 333.996094 734.617188 333.980469 L 582.789062 314.375 C 582.640625 314.355469 582.523438 314.277344 582.453125 314.15625 C 582.382812 314.035156 582.375 313.898438 582.429688 313.769531 C 583.34375 311.585938 584.433594 309.480469 585.675781 307.503906 C 585.984375 307.003906 586.3125 306.511719 586.652344 306.015625 C 587.496094 304.761719 588.460938 303.492188 589.523438 302.242188 L 590.628906 300.9375 L 565.761719 297.703125 C 565.648438 297.679688 565.539062 297.675781 565.445312 297.675781 C 564.691406 297.675781 564.019531 298.105469 563.695312 298.808594 L 550.941406 327.121094 L 592.726562 332.90625 L 586.789062 347.128906 L 586.792969 347.128906 L 581.429688 359.984375 L 581.425781 359.984375 L 545.742188 354.726562 L 538.953125 353.730469 L 528.003906 378.027344 L 533.628906 378.894531 L 535.292969 379.144531 L 571.144531 384.644531 L 561.5 407.789062 L 561.492188 407.785156 L 561.492188 407.789062 L 517.835938 400.59375 L 473.574219 498.847656 L 473.570312 498.847656 L 457.246094 535.085938 C 457.007812 535.621094 457.023438 536.226562 457.296875 536.75 C 457.566406 537.277344 458.058594 537.640625 458.632812 537.75 L 503.886719 546.554688 L 517.539062 513.808594 L 517.628906 513.71875 L 517.640625 513.65625 L 573.828125 523.335938 L 567.214844 540.566406 L 567.21875 540.566406 L 560.679688 557.589844 L 617.957031 568.734375 L 624.585938 550.453125 L 624.59375 550.453125 L 628.628906 539.3125 L 628.820312 538.875 L 628.800781 538.847656 L 628.871094 538.65625 L 685.945312 548.488281 L 723.085938 446.527344 L 649.839844 480.890625 L 635.097656 487.808594 C 634.859375 487.914062 634.628906 487.996094 634.378906 488.066406 C 634.070312 488.160156 633.765625 488.21875 633.46875 488.242188 L 619.132812 489.410156 L 618.945312 489.421875 C 618.46875 489.421875 618.050781 489.144531 617.851562 488.699219 C 617.636719 488.214844 617.742188 487.6875 618.125 487.320312 L 628.792969 477.210938 C 628.917969 477.089844 629.058594 476.980469 629.207031 476.871094 C 629.410156 476.714844 629.640625 476.574219 629.886719 476.445312 L 655.582031 464.378906 L 655.582031 464.382812 L 719.984375 434.136719 L 719.992188 434.136719 L 729.164062 429.816406 L 736.472656 409.761719 L 736.46875 409.761719 L 745.789062 384.179688 L 660.085938 371.5625 L 665.050781 357.632812 L 751.242188 369.199219 L 756.304688 355.3125 L 756.300781 355.3125 L 759.800781 345.726562 L 759.792969 345.722656 L 765.277344 330.675781 L 765.84375 329.109375 L 766.898438 326.222656 C 767.09375 325.671875 767.035156 325.070312 766.734375 324.574219 Z M 624.210938 392.785156 L 675.734375 400.6875 L 675.722656 400.695312 L 678.226562 401.070312 L 678.480469 401.148438 L 678.53125 401.113281 L 678.542969 401.117188 L 669.65625 425.609375 L 615.066406 416.613281 L 615.066406 416.609375 Z M 624.210938 392.785156 " fill-opacity="1" fill-rule="nonzero"/><g clip-path="url(#abb5c02667)"><path fill="#8c4c00" d="M 785.792969 392.773438 C 787.085938 391.460938 788.464844 390.167969 789.796875 388.921875 C 793.042969 385.894531 796.40625 382.757812 798.871094 378.941406 C 801.886719 374.285156 802.855469 368.867188 801.535156 364.074219 C 800.289062 359.566406 797.101562 355.863281 792.578125 353.636719 C 789.320312 352.035156 785.859375 351.199219 782.105469 350.574219 L 792.953125 321.292969 C 793.539062 319.710938 793.6875 318.035156 793.40625 316.433594 C 793.183594 311.574219 791.128906 306.40625 787.898438 302.582031 C 786.359375 300.246094 783.902344 298.71875 781.121094 298.382812 L 761.171875 296 C 760.722656 286.671875 755.78125 278.792969 746.609375 273.328125 C 738.539062 268.527344 728.214844 266.308594 715.929688 266.738281 C 711.117188 266.90625 706.152344 268.042969 701.339844 269.140625 C 698.910156 269.699219 696.507812 270.25 694.144531 270.667969 C 693.550781 267.214844 692.117188 263.9375 689.917969 261.078125 C 686.371094 256.480469 681.242188 253.535156 675.488281 252.792969 L 662.253906 251.089844 C 650.355469 249.542969 639.433594 257.96875 637.898438 269.867188 L 636.449219 281.09375 L 566.292969 272.714844 C 562.207031 272.230469 558.316406 274.410156 556.59375 278.144531 L 434.476562 543.726562 C 433.539062 545.773438 433.359375 548.035156 433.945312 550.148438 C 433.945312 550.15625 433.945312 550.175781 433.957031 550.1875 C 434.523438 554.347656 436.078125 558.265625 438.574219 561.859375 C 438.628906 561.972656 438.675781 562.074219 438.730469 562.1875 C 440.035156 564.765625 442.410156 566.589844 445.25 567.175781 L 670.425781 613.699219 C 671.113281 613.835938 671.8125 613.941406 672.492188 613.988281 C 672.890625 614.015625 673.285156 614.03125 673.675781 614.03125 C 679.828125 614.03125 685.449219 610.4375 687.980469 604.65625 C 688.113281 604.371094 688.234375 604.070312 688.34375 603.773438 L 751.0625 434.425781 L 786.027344 418.023438 C 786.136719 418.433594 786.238281 418.824219 786.324219 419.207031 L 762.269531 430.480469 C 761.804688 430.695312 761.597656 431.253906 761.820312 431.71875 C 761.980469 432.054688 762.316406 432.25 762.667969 432.25 C 762.800781 432.25 762.929688 432.222656 763.058594 432.164062 L 792.363281 418.433594 C 792.832031 418.210938 793.027344 417.660156 792.8125 417.195312 C 792.589844 416.730469 792.039062 416.523438 791.574219 416.746094 L 788.046875 418.394531 C 787.953125 418.015625 787.851562 417.621094 787.730469 417.222656 L 792.03125 415.203125 C 793.621094 414.457031 794.65625 412.882812 794.671875 411.207031 C 794.691406 407.996094 793.238281 404.894531 790.691406 402.707031 C 789.40625 401.601562 787.542969 401.378906 785.941406 402.132812 L 781.167969 404.375 C 780.609375 402.78125 780.652344 400.835938 781.363281 398.976562 C 782.285156 396.546875 784.117188 394.480469 785.792969 392.773438 Z M 760.15625 305.636719 C 760.816406 302.964844 761.171875 300.375 761.199219 297.878906 L 780.894531 300.234375 C 782.636719 300.449219 784.21875 301.222656 785.410156 302.449219 C 785.800781 302.851562 786.15625 303.316406 786.464844 303.808594 C 787.460938 305.4375 787.792969 307.339844 787.441406 309.171875 C 787.367188 309.582031 787.253906 309.992188 787.105469 310.390625 L 786.890625 310.96875 L 772.730469 349.195312 C 770.433594 348.804688 768.078125 348.300781 765.816406 347.59375 L 771.011719 333.324219 C 771.328125 332.445312 771.234375 331.488281 770.75 330.695312 C 770.265625 329.894531 769.457031 329.375 768.535156 329.253906 L 766.625 329.003906 L 767.554688 326.460938 C 767.828125 325.714844 767.742188 324.886719 767.332031 324.207031 C 766.914062 323.527344 766.226562 323.070312 765.433594 322.96875 L 753.992188 321.480469 C 754.867188 319.078125 755.949219 316.648438 757.09375 314.191406 C 758.164062 311.902344 759.019531 309.65625 759.664062 307.460938 C 759.847656 306.84375 760.015625 306.238281 760.15625 305.636719 Z M 629.613281 475.539062 C 629.269531 475.707031 628.945312 475.902344 628.644531 476.125 C 628.46875 476.257812 628.292969 476.394531 628.132812 476.554688 L 619.140625 485.074219 L 617.484375 486.644531 C 616.816406 487.289062 616.628906 488.238281 617 489.074219 C 617.355469 489.867188 618.109375 490.351562 618.945312 490.351562 C 619.011719 490.351562 619.066406 490.34375 619.132812 490.34375 L 621.460938 490.15625 L 633.542969 489.167969 C 633.914062 489.140625 634.289062 489.066406 634.652344 488.953125 C 634.929688 488.878906 635.210938 488.777344 635.480469 488.65625 L 648.195312 482.691406 L 628.246094 537.65625 L 627.753906 538.996094 L 623.984375 549.402344 L 568.492188 539.84375 L 574.699219 523.652344 C 574.71875 523.605469 574.746094 523.558594 574.757812 523.511719 L 582.621094 503.023438 C 582.640625 502.996094 582.648438 502.964844 582.660156 502.929688 L 615.417969 417.613281 L 668.636719 426.382812 L 655.140625 463.558594 L 629.625 475.539062 C 629.625 475.539062 629.625 475.539062 629.613281 475.539062 Z M 633.609375 487.28125 C 633.535156 487.296875 633.46875 487.308594 633.394531 487.308594 L 621.960938 488.238281 C 621.675781 487.445312 621.320312 486.691406 620.910156 485.957031 L 629.316406 478.007812 C 631.605469 480.128906 633.367188 483.9375 633.609375 487.28125 Z M 503.496094 547.167969 C 503.550781 547.199219 503.597656 547.207031 503.644531 547.214844 L 462.871094 539.285156 L 503.570312 547.199219 C 503.550781 547.199219 503.523438 547.179688 503.496094 547.167969 Z M 503.316406 545.492188 L 463.558594 537.757812 L 461.921875 537.441406 L 458.8125 536.835938 C 458.511719 536.78125 458.261719 536.59375 458.121094 536.324219 C 457.984375 536.054688 457.972656 535.738281 458.09375 535.46875 L 474.125 499.886719 L 478.507812 500.628906 L 480.15625 500.917969 L 519.105469 507.621094 L 516.824219 513.085938 C 516.824219 513.09375 516.824219 513.09375 516.816406 513.105469 L 516.75 513.28125 C 516.742188 513.292969 516.734375 513.308594 516.734375 513.328125 Z M 665.519531 358.394531 L 750.054688 369.742188 L 745.09375 383.382812 L 661.03125 371 Z M 659.386719 370.757812 L 582.660156 359.457031 L 587.472656 347.921875 L 663.871094 358.171875 Z M 666.078125 356.828125 L 670.519531 344.375 L 755.035156 356.074219 L 750.625 368.179688 Z M 664.429688 356.605469 L 588.113281 346.367188 L 593.402344 333.703125 L 668.871094 344.148438 Z M 586.242188 346.644531 C 586.226562 346.691406 586.207031 346.738281 586.1875 346.785156 L 581.003906 359.214844 L 546.308594 354.101562 L 544.632812 353.859375 L 540.210938 353.207031 L 551.605469 327.914062 L 556.042969 328.527344 L 557.71875 328.761719 L 591.734375 333.472656 Z M 543.941406 355.40625 L 545.609375 355.648438 L 580.351562 360.769531 L 570.808594 383.652344 L 535.433594 378.222656 L 533.769531 377.972656 L 529.355469 377.292969 L 539.511719 354.753906 Z M 614.386719 415.789062 L 562.71875 407.28125 L 571.8125 385.457031 L 623.015625 393.304688 Z M 624.660156 393.558594 L 677.601562 401.675781 L 669.207031 424.820312 L 616.015625 416.058594 Z M 527.261719 492.296875 L 562.066406 408.824219 L 613.789062 417.34375 L 581.367188 501.785156 Z M 580.769531 503.328125 L 573.472656 522.332031 L 518.667969 512.890625 L 520.957031 507.398438 C 520.976562 507.359375 520.996094 507.3125 521.015625 507.265625 L 526.617188 493.832031 Z M 533.078125 379.519531 L 534.746094 379.769531 L 570.167969 385.195312 L 561.070312 407.011719 L 525.136719 401.089844 L 523.480469 400.808594 L 519.085938 400.09375 L 528.65625 378.839844 Z M 522.785156 402.355469 L 524.441406 402.625 L 560.421875 408.554688 L 525.417969 492.484375 C 525.390625 492.539062 525.363281 492.59375 525.34375 492.660156 L 519.75 506.074219 L 480.855469 499.382812 L 479.199219 499.09375 L 474.824219 498.339844 L 518.390625 401.628906 Z M 518.027344 514.425781 L 572.875 523.875 L 566.636719 540.132812 L 560.316406 556.574219 L 504.9375 545.808594 Z M 567.894531 541.398438 L 623.414062 550.949219 L 617.355469 567.667969 L 561.945312 556.890625 Z M 625.257812 550.640625 L 629.324219 539.441406 L 684.769531 548.996094 L 674.25 577.882812 C 674.082031 578.347656 673.609375 578.609375 673.132812 578.515625 L 618.964844 567.976562 Z M 629.882812 537.886719 L 650.28125 481.710938 L 721.4375 448.328125 L 685.339844 547.441406 Z M 670.265625 426.652344 L 717.25 434.390625 L 657.226562 462.582031 Z M 670.835938 425.089844 L 679.242188 401.925781 L 735.207031 410.511719 L 728.421875 429.140625 L 719.855469 433.171875 Z M 679.363281 400.296875 L 678.367188 400.148438 L 624.289062 391.851562 C 624.242188 391.835938 624.195312 391.835938 624.140625 391.835938 L 572.464844 383.902344 L 582.007812 361.011719 L 659.792969 372.460938 L 744.527344 384.9375 L 735.773438 408.945312 Z M 765.265625 349.101562 C 767.554688 349.839844 769.902344 350.351562 772.164062 350.75 L 746.21875 420.789062 L 737.703125 424.792969 Z M 759.226562 344.570312 C 756.46875 342.753906 754.226562 340.277344 752.941406 336.824219 C 751.972656 334.214844 751.785156 331.527344 752.121094 328.769531 C 752.179688 328.230469 752.269531 327.691406 752.375 327.148438 C 752.625 325.800781 752.996094 324.429688 753.445312 323.054688 L 765.21875 324.589844 C 765.519531 324.625 765.777344 324.792969 765.9375 325.054688 C 766.09375 325.316406 766.121094 325.625 766.019531 325.910156 L 764.96875 328.789062 L 764.402344 330.363281 Z M 694.265625 277.148438 C 694.480469 275.507812 694.507812 273.878906 694.351562 272.285156 C 696.796875 271.847656 699.265625 271.289062 701.703125 270.730469 C 706.433594 269.652344 711.328125 268.535156 715.984375 268.367188 C 727.957031 267.949219 737.980469 270.089844 745.773438 274.734375 C 754.46875 279.910156 759.132812 287.136719 759.597656 295.8125 L 692.886719 287.84375 Z M 692.644531 289.6875 L 759.632812 297.695312 C 759.605469 300.171875 759.242188 302.757812 758.554688 305.449219 C 758.394531 306.042969 758.230469 306.648438 758.035156 307.265625 C 757.410156 309.292969 756.609375 311.378906 755.613281 313.511719 C 754.402344 316.117188 753.25 318.707031 752.335938 321.265625 L 732.898438 318.734375 C 729.585938 312.402344 724.882812 306.875 719.28125 302.636719 C 718.21875 301.828125 717.121094 301.0625 715.992188 300.367188 C 710.742188 297.050781 704.859375 294.824219 698.707031 294.035156 L 692.191406 293.195312 Z M 663.433594 266.050781 C 663.667969 264.242188 665.210938 262.929688 666.980469 262.929688 C 667.140625 262.929688 667.289062 262.941406 667.445312 262.957031 C 668.394531 263.078125 669.234375 263.5625 669.820312 264.316406 C 670.3125 264.960938 670.566406 265.714844 670.566406 266.496094 C 670.566406 266.636719 670.554688 266.777344 670.539062 266.914062 L 670.539062 266.980469 C 670.539062 266.988281 670.539062 267.007812 670.527344 267.027344 C 670.386719 267.949219 669.914062 268.769531 669.167969 269.34375 C 668.414062 269.921875 667.472656 270.183594 666.523438 270.050781 C 664.570312 269.800781 663.183594 268.003906 663.433594 266.050781 Z M 734.5 334.90625 C 734.613281 334.921875 734.722656 334.933594 734.84375 334.933594 C 735.550781 334.933594 736.222656 334.644531 736.726562 334.121094 C 737.300781 333.507812 737.554688 332.679688 737.40625 331.851562 C 737.085938 330.101562 736.667969 328.371094 736.15625 326.683594 C 735.980469 326.105469 735.792969 325.539062 735.589844 324.972656 C 735.058594 323.445312 734.453125 321.953125 733.765625 320.492188 L 751.804688 322.847656 C 751.359375 324.226562 751.003906 325.585938 750.753906 326.945312 C 750.652344 327.484375 750.566406 328.015625 750.511719 328.554688 C 750.128906 331.554688 750.335938 334.496094 751.414062 337.390625 C 752.886719 341.339844 755.5 344.121094 758.667969 346.113281 L 755.605469 354.503906 L 670.136719 342.679688 C 670.117188 342.667969 670.089844 342.667969 670.0625 342.667969 C 670.023438 342.667969 669.996094 342.660156 669.960938 342.660156 L 593.046875 332.007812 C 592.992188 332 592.945312 331.992188 592.890625 331.992188 L 558.417969 327.214844 L 556.742188 326.980469 L 552.300781 326.367188 L 564.542969 299.191406 C 564.710938 298.828125 565.054688 298.605469 565.445312 298.605469 C 565.484375 298.605469 565.53125 298.605469 565.578125 298.613281 L 588.8125 301.640625 C 587.769531 302.871094 586.785156 304.15625 585.878906 305.496094 C 585.535156 305.996094 585.199219 306.5 584.882812 307.011719 C 583.609375 309.042969 582.5 311.183594 581.570312 313.410156 C 581.402344 313.800781 581.429688 314.246094 581.644531 314.617188 C 581.867188 315 582.242188 315.242188 582.667969 315.296875 Z M 682.488281 592.871094 C 682.3125 593.347656 682.109375 593.8125 681.886719 594.257812 C 679.269531 599.546875 673.628906 602.574219 667.734375 601.789062 C 667.390625 601.753906 667.046875 601.699219 666.703125 601.621094 L 441.523438 555.09375 C 441.097656 555.007812 440.675781 554.878906 440.285156 554.730469 L 440.277344 554.730469 C 439.691406 554.496094 439.140625 554.199219 438.636719 553.835938 C 437.660156 553.136719 436.851562 552.195312 436.292969 551.089844 C 435.816406 550.148438 435.546875 549.144531 435.484375 548.121094 C 435.410156 546.898438 435.640625 545.660156 436.171875 544.507812 L 558.289062 278.925781 C 559.535156 276.207031 562.226562 274.511719 565.160156 274.511719 C 565.464844 274.511719 565.761719 274.53125 566.070312 274.566406 L 636.214844 282.945312 L 635.824219 285.90625 L 629.316406 285.070312 C 622.445312 284.183594 615.4375 285.132812 608.902344 287.5625 C 607.71875 287.992188 606.546875 288.484375 605.402344 289.027344 C 599.675781 291.679688 594.433594 295.476562 590.125 300.160156 L 565.78125 296.996094 C 564.628906 296.855469 563.539062 297.460938 563.0625 298.523438 L 550.414062 326.601562 C 550.386719 326.648438 550.355469 326.703125 550.339844 326.757812 C 550.328125 326.769531 550.328125 326.777344 550.328125 326.777344 L 538.328125 353.414062 L 538.238281 353.628906 C 538.226562 353.644531 538.21875 353.664062 538.21875 353.683594 L 527.429688 377.617188 L 517.179688 400.371094 L 472.960938 498.515625 L 472.867188 498.722656 L 456.613281 534.796875 C 456.28125 535.523438 456.308594 536.359375 456.671875 537.070312 C 457.042969 537.785156 457.703125 538.289062 458.496094 538.4375 L 461.230469 538.96875 L 460.476562 540.652344 C 460.085938 541.507812 460.113281 542.46875 460.542969 543.304688 C 460.980469 544.132812 461.753906 544.710938 462.675781 544.898438 L 676.105469 586.402344 C 676.300781 586.4375 676.503906 586.457031 676.699219 586.457031 C 677.957031 586.457031 679.101562 585.675781 679.546875 584.445312 L 730.710938 443.96875 L 739.089844 440.042969 Z M 785.457031 416.226562 L 751.980469 431.933594 L 749.582031 433.058594 L 742.421875 436.417969 L 740.011719 437.546875 L 731.613281 441.492188 L 729.519531 442.472656 L 724.4375 444.855469 L 722.34375 445.839844 L 651.183594 479.226562 L 649.097656 480.203125 L 635.191406 486.730469 C 634.828125 483.21875 633.058594 479.429688 630.703125 477.085938 L 654.246094 466.035156 L 656.320312 465.058594 L 720.488281 434.921875 L 723.097656 433.699219 L 727.519531 431.625 L 729.613281 430.636719 L 734.703125 428.246094 L 736.800781 427.269531 L 745.296875 423.273438 L 747.710938 422.136719 L 754.867188 418.777344 L 757.269531 417.652344 L 780.375 406.804688 C 782.265625 409.058594 784.230469 412.761719 785.457031 416.226562 Z M 779.84375 398.398438 C 778.980469 400.679688 778.949219 403.082031 779.703125 405.0625 L 758.191406 415.164062 L 781.53125 352.128906 C 785.273438 352.734375 788.699219 353.535156 791.863281 355.097656 C 795.96875 357.117188 798.84375 360.460938 799.960938 364.511719 C 801.164062 368.859375 800.269531 373.792969 797.511719 378.054688 C 795.148438 381.707031 791.863281 384.769531 788.6875 387.730469 C 787.339844 388.996094 785.949219 390.289062 784.628906 391.628906 C 782.832031 393.453125 780.859375 395.6875 779.84375 398.398438 Z M 648.457031 439.316406 C 648.660156 439.714844 648.503906 440.199219 648.101562 440.402344 C 647.703125 440.617188 647.207031 440.460938 647.003906 440.058594 C 646.78125 439.621094 646.378906 439.332031 645.820312 439.210938 C 644.851562 439.007812 643.597656 439.332031 642.757812 440.003906 C 642.273438 440.386719 641.652344 441.066406 640.988281 441.792969 C 639.304688 443.652344 637.089844 446.082031 634.742188 446.082031 C 634.296875 446.082031 633.859375 446 633.414062 445.8125 C 631.382812 444.949219 631.449219 442.285156 631.503906 439.929688 C 631.542969 438.726562 631.578125 437.070312 631.160156 436.746094 C 631.066406 436.660156 630.824219 436.671875 630.507812 436.753906 C 627.210938 437.648438 623.695312 440.589844 621.75 444.082031 C 621.523438 444.472656 621.03125 444.613281 620.640625 444.390625 C 620.25 444.175781 620.109375 443.679688 620.324219 443.28125 C 622.113281 440.085938 625.824219 436.335938 630.078125 435.179688 C 630.9375 434.949219 631.632812 435.042969 632.175781 435.460938 C 633.226562 436.289062 633.179688 438.078125 633.132812 439.976562 C 633.085938 441.800781 633.039062 443.875 634.046875 444.3125 C 635.824219 445.070312 638.019531 442.636719 639.789062 440.703125 C 640.523438 439.890625 641.15625 439.195312 641.746094 438.726562 C 642.980469 437.742188 644.714844 437.3125 646.15625 437.621094 C 647.191406 437.84375 648.007812 438.441406 648.457031 439.316406 Z M 638.242188 460.53125 C 638.179688 460.980469 637.761719 461.277344 637.324219 461.230469 C 635.582031 460.988281 633.792969 461.351562 632.285156 462.246094 C 631.859375 462.496094 631.390625 462.824219 630.898438 463.167969 C 629.445312 464.191406 627.6875 465.429688 625.808594 465.429688 C 625.5 465.429688 625.183594 465.390625 624.875 465.316406 C 621.980469 464.648438 622.25 462.179688 622.429688 460.542969 C 622.605469 458.949219 622.605469 458.222656 621.851562 457.871094 C 621.523438 457.730469 621.050781 457.824219 620.660156 457.925781 C 617.644531 458.707031 615.214844 461.042969 613.707031 462.867188 C 613.417969 463.214844 612.90625 463.269531 612.558594 462.980469 C 612.207031 462.691406 612.160156 462.179688 612.449219 461.835938 C 614.832031 458.949219 617.53125 457.050781 620.25 456.34375 C 620.902344 456.175781 621.738281 456.027344 622.53125 456.390625 C 624.4375 457.265625 624.214844 459.265625 624.046875 460.726562 C 623.832031 462.65625 623.878906 463.417969 625.238281 463.734375 C 626.757812 464.089844 628.460938 462.898438 629.96875 461.835938 C 630.480469 461.472656 630.972656 461.128906 631.449219 460.847656 C 633.28125 459.757812 635.453125 459.332031 637.546875 459.609375 C 637.992188 459.675781 638.300781 460.085938 638.242188 460.53125 Z M 565.839844 432.628906 C 565.476562 432.359375 565.402344 431.847656 565.671875 431.496094 C 567.160156 429.484375 569.160156 427.917969 571.480469 426.980469 C 574.421875 425.777344 576.070312 426.636719 576.925781 427.566406 C 577.714844 428.414062 577.902344 429.605469 578.089844 430.742188 C 578.394531 432.761719 578.664062 433.488281 580.238281 433.476562 C 581.179688 433.460938 581.980469 432.667969 582.828125 431.839844 C 583.488281 431.179688 584.175781 430.5 585.023438 430.109375 C 586.253906 429.539062 587.222656 429.472656 587.976562 429.902344 C 589.203125 430.601562 589.371094 432.277344 589.546875 434.035156 C 589.6875 435.488281 589.855469 437.128906 590.664062 437.527344 C 591.066406 437.722656 591.234375 438.214844 591.027344 438.617188 C 590.890625 438.90625 590.601562 439.074219 590.300781 439.074219 C 590.179688 439.074219 590.050781 439.046875 589.9375 438.988281 C 588.328125 438.1875 588.113281 436.066406 587.929688 434.203125 C 587.808594 433.039062 587.667969 431.605469 587.164062 431.316406 C 586.914062 431.179688 586.390625 431.269531 585.710938 431.585938 C 585.125 431.859375 584.558594 432.417969 583.972656 432.992188 C 582.984375 433.972656 581.859375 435.070312 580.277344 435.105469 C 577.121094 435.179688 576.75 432.761719 576.476562 431 C 576.328125 430.050781 576.191406 429.15625 575.734375 428.671875 C 575.453125 428.375 574.605469 427.464844 572.09375 428.488281 C 570.054688 429.316406 568.285156 430.695312 566.984375 432.464844 C 566.714844 432.824219 566.199219 432.902344 565.839844 432.628906 Z M 580.871094 454.871094 C 580.613281 453.847656 580.191406 453.222656 579.597656 452.992188 C 578.015625 452.375 575.164062 454.238281 573.460938 455.355469 C 573.015625 455.644531 572.625 455.90625 572.296875 456.089844 C 571.253906 456.695312 570.425781 456.996094 569.746094 456.996094 C 569.429688 456.996094 569.144531 456.9375 568.882812 456.816406 C 567.8125 456.324219 567.589844 455.046875 567.363281 453.808594 C 567.214844 453.011719 567.066406 452.191406 566.730469 451.574219 C 566.378906 450.933594 565.875 450.542969 565.203125 450.382812 C 563.890625 450.058594 562.273438 450.691406 561.296875 451.335938 C 559.601562 452.441406 558.148438 453.949219 557.117188 455.691406 C 556.882812 456.074219 556.378906 456.203125 556 455.96875 C 555.605469 455.746094 555.484375 455.242188 555.710938 454.863281 C 556.875 452.90625 558.503906 451.214844 560.402344 449.964844 C 561.722656 449.109375 563.78125 448.355469 565.605469 448.800781 C 566.703125 449.070312 567.589844 449.761719 568.15625 450.785156 C 568.628906 451.640625 568.808594 452.636719 568.964844 453.523438 C 569.097656 454.265625 569.261719 455.199219 569.5625 455.335938 C 569.636719 455.375 570.082031 455.496094 571.480469 454.683594 C 571.785156 454.507812 572.148438 454.265625 572.570312 453.988281 C 574.664062 452.617188 577.820312 450.550781 580.183594 451.472656 C 581.300781 451.910156 582.0625 452.917969 582.453125 454.480469 C 582.566406 454.917969 582.304688 455.355469 581.867188 455.46875 C 581.429688 455.570312 580.984375 455.308594 580.871094 454.871094 Z M 518.9375 426.199219 C 518.613281 425.878906 518.613281 425.367188 518.921875 425.042969 C 520.988281 422.910156 523.265625 420.972656 525.707031 419.28125 C 527.335938 418.152344 529.691406 417.4375 531.28125 418.367188 C 532.054688 418.816406 532.921875 419.8125 532.714844 422.007812 C 532.632812 422.875 532.316406 423.644531 532 424.390625 C 531.914062 424.605469 531.824219 424.820312 531.738281 425.035156 C 531.683594 425.191406 531.757812 425.292969 531.839844 425.351562 C 532.007812 425.453125 532.109375 425.351562 532.148438 425.3125 L 535.089844 422.492188 C 536.160156 421.457031 538.460938 420.296875 540.003906 421.078125 C 540.527344 421.335938 541.363281 422.054688 541.132812 423.851562 C 541.039062 424.558594 540.777344 425.304688 540.527344 426.03125 C 539.773438 428.226562 539.550781 429.34375 540.769531 430.144531 C 541.148438 430.386719 541.253906 430.898438 541.011719 431.269531 C 540.851562 431.511719 540.589844 431.644531 540.320312 431.644531 C 540.171875 431.644531 540.015625 431.597656 539.882812 431.511719 C 537.453125 429.929688 538.339844 427.371094 538.992188 425.5 C 539.222656 424.820312 539.445312 424.175781 539.519531 423.644531 C 539.558594 423.300781 539.585938 422.695312 539.269531 422.53125 C 538.664062 422.222656 537.121094 422.800781 536.214844 423.664062 L 533.273438 426.484375 C 532.632812 427.109375 531.691406 427.203125 530.9375 426.710938 C 530.183594 426.207031 529.894531 425.292969 530.222656 424.445312 C 530.304688 424.222656 530.40625 423.992188 530.5 423.757812 C 530.769531 423.097656 531.03125 422.472656 531.097656 421.859375 C 531.199219 420.777344 530.984375 420.082031 530.464844 419.773438 C 529.664062 419.308594 528.015625 419.671875 526.628906 420.621094 C 524.28125 422.25 522.074219 424.121094 520.09375 426.179688 C 519.777344 426.496094 519.265625 426.503906 518.9375 426.199219 Z M 531.886719 453.011719 C 531.867188 453.449219 531.507812 453.792969 531.070312 453.792969 L 531.039062 453.792969 C 529.960938 453.753906 529.066406 453.316406 528.441406 452.535156 C 527.71875 451.605469 527.449219 450.234375 527.734375 448.859375 C 527.828125 448.390625 528.070312 447.191406 527.828125 446.929688 C 527.78125 446.875 527.613281 446.835938 527.335938 446.875 C 526.570312 446.957031 525.574219 448.1875 524.699219 449.277344 C 523.351562 450.972656 521.816406 452.890625 519.886719 452.089844 C 518.175781 451.378906 518.453125 449.371094 518.6875 447.757812 C 518.808594 446.894531 518.957031 445.824219 518.707031 445.46875 C 518.574219 445.300781 518.445312 445.226562 518.257812 445.246094 C 516.546875 445.292969 512.953125 449.472656 511.789062 451.25 C 511.539062 451.621094 511.035156 451.734375 510.664062 451.484375 C 510.28125 451.242188 510.179688 450.730469 510.421875 450.355469 C 510.46875 450.292969 515.027344 443.699219 518.222656 443.617188 C 518.957031 443.617188 519.570312 443.90625 520.019531 444.5 C 520.671875 445.386719 520.476562 446.707031 520.296875 447.984375 C 520.113281 449.332031 520 450.375 520.511719 450.589844 C 521.304688 450.925781 522.4375 449.507812 523.433594 448.261719 C 524.5625 446.855469 525.714844 445.414062 527.160156 445.253906 C 527.976562 445.160156 528.601562 445.355469 529.03125 445.832031 C 529.832031 446.707031 529.542969 448.132812 529.328125 449.164062 C 529.140625 450.097656 529.289062 450.972656 529.726562 451.53125 C 530.042969 451.929688 530.511719 452.144531 531.105469 452.164062 C 531.550781 452.179688 531.90625 452.5625 531.886719 453.011719 Z M 531.886719 453.011719 " fill-opacity="1" fill-rule="nonzero"/></g><g clip-path="url(#2354336e24)"><path fill="#1f191a" d="M 282.6875 506.332031 C 295.011719 511.679688 362.757812 537.644531 433.730469 497.152344 C 435.503906 496.140625 437.75 496.6875 438.859375 498.410156 C 439.875 499.988281 439.625 502.066406 438.269531 503.351562 C 425.1875 515.757812 358.109375 572.285156 281.21875 508.769531 C 280.890625 508.496094 280.699219 508.089844 280.699219 507.65625 C 280.699219 506.621094 281.746094 505.925781 282.6875 506.332031 " fill-opacity="1" fill-rule="nonzero"/></g><path fill="#ffffff" d="M 295.949219 515.230469 C 295.949219 515.230469 353.945312 538.511719 420.066406 510.484375 C 420.066406 510.484375 366.484375 556.34375 295.949219 515.230469 " fill-opacity="1" fill-rule="nonzero"/><path fill="#1f191a" d="M 276.613281 516.921875 C 277.265625 516.203125 277.175781 515.085938 276.421875 514.480469 C 274.582031 513.003906 271.945312 510.054688 274.214844 506.453125 C 276.5 502.828125 279.761719 502.421875 281.53125 502.503906 C 282.214844 502.535156 282.785156 501.984375 282.785156 501.296875 C 282.785156 500.726562 282.398438 500.242188 281.851562 500.113281 C 279.78125 499.632812 274.75 499.035156 271.890625 503.605469 C 270.273438 506.195312 269.863281 509.410156 270.773438 512.332031 C 271.3125 514.070312 272.382812 515.964844 274.453125 517.273438 C 275.136719 517.707031 276.039062 517.558594 276.585938 516.957031 L 276.613281 516.921875 " fill-opacity="1" fill-rule="nonzero"/><g clip-path="url(#c52ecf8ac9)"><path fill="#1f191a" d="M 431.769531 489.191406 C 431.828125 490.5625 433.015625 491.59375 434.355469 491.4375 C 437.648438 491.058594 443.210938 491.339844 444.507812 497.222656 C 445.808594 503.125 442.972656 506.8125 441.128906 508.511719 C 440.410156 509.167969 440.378906 510.292969 441.066406 510.984375 C 441.621094 511.546875 442.484375 511.652344 443.148438 511.234375 C 445.773438 509.578125 451.695312 504.855469 449.441406 496.953125 C 448.390625 493.265625 445.953125 490.09375 442.652344 488.1875 C 440.34375 486.851562 437.230469 485.839844 433.625 486.660156 C 432.496094 486.917969 431.710938 487.964844 431.765625 489.132812 L 431.769531 489.191406 " fill-opacity="1" fill-rule="nonzero"/></g></svg>