<svg xmlns="http://www.w3.org/2000/svg" xmlns:xlink="http://www.w3.org/1999/xlink" width="1152" zoomAndPan="magnify" viewBox="0 0 864 863.999991" height="1152" preserveAspectRatio="xMidYMid meet" version="1.0"><defs><clipPath id="472b32eeb5"><path d="M 69 49 L 797 49 L 797 777.773438 L 69 777.773438 Z M 69 49 " clip-rule="nonzero"/></clipPath><clipPath id="9ad7e70745"><path d="M 204 324.464844 L 709 324.464844 L 709 497 L 204 497 Z M 204 324.464844 " clip-rule="nonzero"/></clipPath><clipPath id="b47b3541da"><path d="M 287.210938 75 L 536.488281 75 L 536.488281 324.382812 L 287.210938 324.382812 Z M 287.210938 75 " clip-rule="nonzero"/></clipPath><clipPath id="a438638f10"><path d="M 384.167969 34.882812 L 576.707031 34.882812 L 576.707031 227.605469 L 384.167969 227.605469 Z M 384.167969 34.882812 " clip-rule="nonzero"/></clipPath></defs><rect x="-86.4" width="1036.8" fill="#ffffff" y="-86.399999" height="1036.79999" fill-opacity="1"/><rect x="-86.4" width="1036.8" fill="#ff8d8d" y="-86.399999" height="1036.79999" fill-opacity="1"/><g clip-path="url(#472b32eeb5)"><path fill="#fefaed" d="M 290.164062 166.828125 C 287.078125 187.332031 288.519531 208.21875 287.617188 228.9375 C 286.710938 249.652344 283.144531 271.054688 271.371094 288.125 C 263.394531 299.699219 252.019531 308.652344 239.574219 315.183594 C 227.132812 321.71875 213.605469 325.949219 199.964844 329.332031 C 172.679688 336.097656 144.109375 339.789062 119.324219 353.046875 C 97.902344 364.507812 79.949219 383.558594 72.945312 406.820312 C 69.441406 418.449219 68.726562 430.964844 71.324219 442.832031 C 73.917969 454.699219 79.863281 465.875 88.570312 474.34375 C 97.257812 482.796875 108.402344 488.371094 119.9375 492.097656 C 131.472656 495.820312 143.484375 497.800781 155.417969 499.917969 C 167.355469 502.03125 179.335938 504.3125 190.675781 508.597656 C 202.015625 512.878906 212.777344 519.296875 220.597656 528.558594 C 227.234375 536.414062 231.542969 546.101562 233.640625 556.167969 C 235.742188 566.238281 235.683594 576.683594 234.195312 586.855469 C 231.214844 607.207031 222.664062 626.253906 214.40625 645.089844 C 206.148438 663.929688 198 683.21875 195.910156 703.679688 C 194.863281 713.910156 195.378906 724.363281 198.128906 734.273438 C 200.882812 744.179688 205.929688 753.535156 213.222656 760.785156 C 222.570312 770.074219 235.359375 775.585938 248.460938 776.996094 C 261.5625 778.410156 274.9375 775.863281 287.042969 770.660156 C 311.257812 760.253906 329.800781 739.945312 345.199219 718.554688 C 360.597656 697.164062 373.726562 674.03125 391.304688 654.394531 C 400.09375 644.574219 410 635.660156 421.269531 628.828125 C 432.539062 622 445.222656 617.292969 458.347656 616.144531 C 472.425781 614.914062 486.695312 617.804688 499.679688 623.375 C 512.664062 628.945312 524.414062 637.125 534.964844 646.527344 C 556.0625 665.324219 572.339844 688.792969 590.695312 710.277344 C 609.050781 731.761719 630.566406 751.96875 657.386719 760.867188 C 670.792969 765.320312 685.34375 766.75 699.175781 763.863281 C 713.007812 760.972656 726.046875 753.601562 734.808594 742.519531 C 745.609375 728.851562 749.242188 710.5 747.621094 693.152344 C 746.003906 675.808594 739.5625 659.265625 731.949219 643.597656 C 724.332031 627.929688 715.476562 612.859375 708.542969 596.878906 C 701.609375 580.898438 696.59375 563.714844 697.222656 546.308594 C 698 524.714844 707.429688 504.242188 719.597656 486.386719 C 731.765625 468.53125 746.710938 452.773438 760.304688 435.976562 C 773.894531 419.179688 786.355469 400.902344 792.378906 380.148438 C 795.386719 369.773438 796.730469 358.855469 795.6875 348.101562 C 794.644531 337.347656 791.171875 326.765625 785.109375 317.820312 C 774.542969 302.226562 756.78125 292.601562 738.421875 288.390625 C 720.0625 284.183594 700.957031 284.859375 682.171875 286.265625 C 663.386719 287.667969 644.546875 289.785156 625.761719 288.375 C 606.976562 286.964844 587.945312 281.734375 573.230469 269.976562 C 562.46875 261.375 554.492188 249.644531 548.941406 237.039062 C 543.394531 224.429688 540.164062 210.921875 537.777344 197.355469 C 533 170.222656 531.335938 142.050781 520.148438 116.875 C 508.894531 91.550781 488.042969 70.636719 462.757812 59.304688 C 437.46875 47.972656 407.980469 46.332031 381.59375 54.785156 C 357.847656 63.488281 336.515625 78.679688 320.523438 98.277344 C 304.535156 117.871094 293.929688 141.820312 290.164062 166.828125 Z M 290.164062 166.828125 " fill-opacity="1" fill-rule="nonzero"/></g><g clip-path="url(#9ad7e70745)"><path fill="#000000" d="M 704.296875 374.742188 C 700.15625 377.671875 694.859375 383.714844 694.128906 395.917969 C 694.3125 401.164062 694.128906 406.410156 693.824219 411.535156 C 690.960938 456.6875 681.339844 485.183594 599.746094 495.191406 C 596.152344 495.617188 592.621094 495.859375 589.210938 496.042969 C 501.953125 499.214844 469.4375 415.746094 476.5625 375.109375 C 476.625 374.988281 476.5625 374.867188 476.625 374.804688 C 471.691406 373.035156 465.421875 371.632812 457.6875 371.632812 C 451.476562 371.632812 444.414062 372.546875 436.496094 374.925781 C 436.496094 374.988281 436.496094 375.109375 436.496094 375.171875 C 443.558594 415.6875 411.105469 499.15625 323.726562 495.921875 C 320.316406 495.800781 316.785156 495.496094 313.191406 495.066406 C 231.597656 485.121094 222.035156 456.628906 219.113281 411.414062 C 218.75 406.289062 218.625 401.042969 218.808594 395.792969 C 218.140625 383.589844 212.78125 377.550781 208.640625 374.621094 C 205.71875 372.546875 204.132812 369.007812 204.378906 365.410156 C 204.867188 358.878906 205.414062 352.351562 205.902344 345.820312 C 206.328125 340.757812 210.34375 336.667969 215.398438 336.242188 C 215.460938 336.242188 215.519531 336.242188 215.582031 336.242188 C 244.75 333.800781 273.183594 327.089844 302.167969 325.320312 C 313.433594 324.589844 324.761719 324.464844 336.085938 324.894531 C 353.925781 325.566406 371.707031 327.761719 389.121094 331.667969 C 394.117188 332.824219 398.925781 334.351562 403.492188 336.242188 C 403.492188 336.242188 426.570312 339.597656 458.296875 339.597656 C 473.640625 339.597656 491.054688 338.804688 508.773438 336.488281 C 513.464844 334.472656 518.457031 332.886719 523.632812 331.726562 C 541.046875 327.761719 558.828125 325.625 576.667969 324.953125 C 587.996094 324.527344 599.320312 324.648438 610.585938 325.382812 C 639.691406 327.210938 668.128906 333.925781 697.292969 336.363281 C 697.355469 336.363281 697.417969 336.363281 697.476562 336.363281 C 702.53125 336.792969 706.609375 340.820312 706.976562 345.945312 C 707.464844 352.472656 708.011719 359 708.5 365.53125 C 708.804688 369.128906 707.21875 372.667969 704.296875 374.742188 Z M 704.296875 374.742188 " fill-opacity="1" fill-rule="nonzero"/></g><path fill="#ffffff" d="M 296.566406 476.214844 C 223.621094 464.011719 239.9375 380.175781 239.9375 380.175781 C 244.078125 454.796875 296.566406 476.214844 296.566406 476.214844 Z M 507.496094 377.125 C 507.496094 377.125 491.117188 460.960938 564.125 473.164062 C 564.125 473.164062 511.699219 451.746094 507.496094 377.125 Z M 507.496094 377.125 " fill-opacity="1" fill-rule="nonzero"/><g clip-path="url(#b47b3541da)"><path fill="#000000" d="M 482.976562 270.875 C 443.78125 310.066406 380.023438 310.09375 340.796875 270.953125 C 301.90625 232.144531 301.46875 168.816406 339.84375 129.5 C 371.160156 97.410156 418.703125 90.8125 456.695312 109.699219 C 458.21875 110.457031 460.050781 110.164062 461.253906 108.960938 L 473.238281 96.980469 C 475.085938 95.128906 474.667969 92.011719 472.378906 90.738281 C 454.074219 80.535156 433.378906 75.105469 411.847656 75.105469 C 378.554688 75.105469 347.253906 88.070312 323.714844 111.609375 C 300.175781 135.152344 287.210938 166.453125 287.210938 199.742188 C 287.210938 232.882812 300.054688 264.042969 323.386719 287.546875 C 346.238281 310.566406 377.273438 323.824219 409.707031 324.363281 C 444.453125 324.941406 477.175781 311.414062 501.363281 286.472656 C 523.914062 263.21875 536.527344 231.964844 536.484375 199.574219 C 536.457031 178.097656 531.027344 157.460938 520.847656 139.203125 C 519.578125 136.917969 516.460938 136.503906 514.613281 138.351562 L 502.628906 150.335938 C 501.425781 151.539062 501.136719 153.378906 501.894531 154.902344 C 520.601562 192.542969 514.300781 239.550781 482.976562 270.875 " fill-opacity="1" fill-rule="nonzero"/></g><path fill="#000000" d="M 358.855469 146.75 C 329.898438 175.707031 329.636719 222.660156 358.070312 251.941406 C 386.929688 281.660156 434.824219 282.238281 464.371094 253.203125 C 485.011719 232.914062 491.378906 203.578125 483.46875 177.710938 C 482.59375 174.859375 479 173.96875 476.890625 176.074219 L 463.378906 189.585938 C 462.503906 190.460938 462.097656 191.695312 462.261719 192.921875 C 464.28125 207.953125 459.601562 223.722656 448.226562 235.339844 C 428.601562 255.386719 396.125 255.695312 376.140625 236.011719 C 356.011719 216.191406 355.917969 183.691406 375.859375 163.753906 C 387.515625 152.09375 403.472656 147.285156 418.675781 149.328125 C 419.898438 149.492188 421.132812 149.085938 422.007812 148.210938 L 435.515625 134.699219 C 437.621094 132.597656 436.738281 129 433.894531 128.128906 C 408.21875 120.269531 379.128906 126.476562 358.855469 146.75 " fill-opacity="1" fill-rule="nonzero"/><g clip-path="url(#a438638f10)"><path fill="#000000" d="M 532.957031 50.859375 L 508.628906 75.191406 C 505.203125 78.617188 503.328125 83.355469 503.484375 88.199219 C 503.675781 94.175781 501.363281 100.027344 497.132812 104.253906 L 423.140625 178.246094 C 419.773438 181.617188 415.230469 183.726562 410.355469 184.191406 C 406.699219 184.535156 403.394531 186.089844 400.796875 188.691406 C 400.640625 188.84375 400.488281 189.003906 400.339844 189.167969 C 394.863281 195.109375 394.871094 204.410156 400.359375 210.339844 C 403.28125 213.5 407.25 215.285156 411.539062 215.371094 C 415.824219 215.445312 419.867188 213.828125 422.898438 210.796875 C 425.496094 208.199219 427.050781 204.898438 427.402344 201.25 C 427.867188 196.359375 429.980469 191.8125 433.34375 188.449219 L 507.335938 114.457031 C 511.566406 110.226562 517.417969 107.914062 523.390625 108.105469 C 528.234375 108.257812 532.972656 106.386719 536.398438 102.964844 L 560.730469 78.632812 L 545.179688 78.128906 C 538.8125 77.925781 533.667969 72.777344 533.460938 66.410156 Z M 411.863281 227.394531 C 411.675781 227.394531 411.492188 227.394531 411.304688 227.390625 C 403.71875 227.242188 396.695312 224.085938 391.53125 218.503906 C 381.816406 208.003906 381.804688 191.539062 391.496094 181.019531 C 391.757812 180.738281 392.023438 180.460938 392.292969 180.191406 C 396.832031 175.652344 402.84375 172.824219 409.222656 172.21875 C 411.320312 172.019531 413.242188 171.144531 414.640625 169.746094 L 488.632812 95.753906 C 490.519531 93.867188 491.554688 91.253906 491.46875 88.585938 C 491.203125 80.4375 494.359375 72.457031 500.125 66.691406 L 529.273438 37.542969 C 531.832031 34.984375 535.660156 34.191406 539.023438 35.523438 C 542.390625 36.851562 544.640625 40.050781 544.757812 43.667969 L 545.476562 66.019531 C 545.476562 66.070312 545.519531 66.109375 545.570312 66.113281 L 567.921875 66.835938 C 571.539062 66.949219 574.738281 69.199219 576.070312 72.566406 C 577.398438 75.933594 576.605469 79.761719 574.046875 82.320312 L 544.902344 111.464844 C 539.136719 117.230469 531.148438 120.386719 523.003906 120.125 C 520.332031 120.042969 517.726562 121.070312 515.839844 122.957031 L 441.847656 196.949219 C 440.453125 198.34375 439.570312 200.277344 439.367188 202.394531 C 438.761719 208.765625 435.929688 214.769531 431.402344 219.296875 C 426.164062 224.53125 419.246094 227.394531 411.863281 227.394531 " fill-opacity="1" fill-rule="nonzero"/></g></svg>